<svg xmlns="http://www.w3.org/2000/svg" viewBox="0 0 64.53 26.56"><defs><style>.cls-1{fill:#fefefe;}.cls-2{fill:#140277;}.cls-3{fill:#251a59;}</style></defs><title>logo</title><g id="Laag_2" data-name="Laag 2"><g id="Laag_1-2" data-name="Laag 1"><path class="cls-1" d="M59.71,25.08,59.63,25c0-.24.06-.47.06-.71s-.08-.22-.24-.22-.17.08-.18.2a10.43,10.43,0,0,1-.36,1.89c-.05.16,0,.32.19.35s.3,0,.34-.23,0-.44.11-.63c.47.24.59,1,1.37.83a7.3,7.3,0,0,0-.59-.65c-.33-.29-.37-.52,0-.81a2.57,2.57,0,0,0,.76-.82.59.59,0,0,0-.67.19C60.2,24.63,60,24.85,59.71,25.08Zm2.21-6.38c.26-1.82.53-3.64.79-5.47.15-1,.28-2.08.42-3.12q.68-4.87,1.38-9.74c0-.3,0-.37-.33-.37H4.41A3.47,3.47,0,0,1,4,0c-.24,0-.3.09-.33.3-.12.95-.26,1.89-.39,2.84C2.82,6.25,2.38,9.35,2,12.46c-.15,1.09-.36,2.17-.42,3.27v.14a.44.44,0,0,0-.06.12c-.27,1.92-.54,3.84-.78,5.77,0,.33-.4.73-.1,1s.67,0,1,0H61.12c.17,0,.26,0,.28-.22.08-.74.25-1.48.28-2.23A12.78,12.78,0,0,0,61.92,18.71ZM.62,25.37l.36.9c.12.29.25.3.42,0a3.49,3.49,0,0,1,.65-.86c0,.31-.05.56-.08.82s0,.23.14.24.26,0,.27-.13a14.87,14.87,0,0,0,.19-2.27c-.72.39-.73,1.23-1.31,1.64L.7,24.46c0-.12-.08-.28-.22-.27s-.15.19-.17.3c-.1.56-.2,1.13-.29,1.7,0,.13-.09.3.13.34s.27-.11.3-.28A3.09,3.09,0,0,1,.62,25.37ZM44,25.49l.1,0c0,.24-.07.47-.09.71s-.06.27.14.29.28,0,.3-.22c.06-.62.14-1.23.2-1.85,0-.09,0-.21-.06-.25s-.16.06-.23.12a1.54,1.54,0,0,0-.24.28,7.86,7.86,0,0,1-.81,1.19l-.61-1.44c0-.08-.08-.19-.2-.17s-.11.1-.13.18c-.1.63-.21,1.26-.31,1.88,0,.12-.06.26.15.28s.23-.08.27-.25a2,2,0,0,1,.21-.83c.12.31.23.55.33.8s.23.37.43.06S43.79,25.75,44,25.49Zm-18.1.29c0,.76,0,.76.59.74a2.79,2.79,0,0,0,.61-.07,1.25,1.25,0,0,0,1-1,1,1,0,0,0-.32-1.08,2.26,2.26,0,0,0-1.52-.23c-.1,0-.08.12-.11.19C25.84,24.86,26,25.41,25.88,25.78Zm6-1.61c-.18.1-.59-.22-.6.28s-.15,1.12-.19,1.68c0,.14-.17.37.16.39s.27-.15.29-.34,0-.3.18-.33a.32.32,0,0,1,.37.23.64.64,0,0,0,.55.46c.12,0,.24.07.22-.09s.19-.28-.05-.36c-.42-.14-.36-.31-.09-.59a.76.76,0,0,0,.19-.87c-.15-.31-.33-.65-.79-.46A.71.71,0,0,1,31.85,24.17Zm14.83,0a1.36,1.36,0,0,0-1.41,1.3,1,1,0,0,0,1.09,1.09,1.41,1.41,0,0,0,1.41-1.33A1,1,0,0,0,46.69,24.15Zm-28.41,0c-.09.11-.37-.16-.42.13-.12.63-.22,1.27-.31,1.91a.25.25,0,0,0,.22.31c.19,0,.26-.05.26-.24a.8.8,0,0,1,0-.18c0-.11,0-.26.2-.26a.3.3,0,0,1,.3.18c.08.17.14.37.33.44s.39.16.51-.07,0-.27-.22-.35-.33-.22-.07-.43a.88.88,0,0,0,.3-1c-.12-.39-.53-.38-.87-.45A1.72,1.72,0,0,0,18.27,24.17Zm3.07,0a.92.92,0,0,0-1,.79c-.1.43-.14.88-.21,1.32,0,.12,0,.23.14.25s.28,0,.28-.1c0-.65.49-.39.81-.44s.31.06.3.28-.07.27.15.27.21-.15.23-.24a9.62,9.62,0,0,0,.18-1.22C22.26,24.43,22,24.15,21.34,24.15Zm-16.85,0a.93.93,0,0,0-1,.66,11.23,11.23,0,0,0-.25,1.46c0,.12,0,.23.15.25s.26,0,.26-.14c0-.65.54-.34.85-.41s.31,0,.25.26,0,.29.18.29.22-.12.24-.27c0-.39.13-.79.17-1.18C5.42,24.44,5.12,24.15,4.49,24.15Zm32.1,1.45-1-1.19c-.08-.09-.14-.25-.28-.23s-.1.21-.12.32c-.09.55-.17,1.1-.25,1.65,0,.14-.11.33.17.35s.26-.12.28-.3c0-.34.09-.67.15-1.09l1.06,1.23c.06.07.12.17.23.12s.08-.13.09-.21l.21-1.8c0-.12.15-.28-.12-.3s-.26.09-.28.28C36.72,24.79,36.66,25.13,36.59,25.6Zm2.9-.34c-.16.12-.49-.17-.52.21s.27.15.42.19.16.07.15.19-.08.18-.2.22a.81.81,0,0,1-1-.4.88.88,0,0,1,.48-1,1.08,1.08,0,0,1,.88,0c.18.08.21,0,.28-.16s0-.18-.1-.24a1.49,1.49,0,0,0-2,1.11c-.1.92.81,1.45,1.82,1.06.5-.2.34-.65.36-1S39.66,25.38,39.49,25.27ZM23.23,24.11,23,26.18c0,.13-.12.3.12.33s.27-.09.32-.3a4.08,4.08,0,0,1,.18-1c.48.42.77,1,1.29,1.35.11-.71.21-1.33.29-2,0-.14.16-.36-.12-.42s-.3.17-.33.36-.09.66-.14,1A15.21,15.21,0,0,0,23.23,24.11ZM8.17,25a.75.75,0,0,0-.52-.86A1.08,1.08,0,0,0,6.23,25c-.08.4-.12.82-.18,1.23,0,.11,0,.24.11.27s.3,0,.31-.13c0-.66.52-.35.83-.41s.3,0,.25.26-.06.26.15.28.26,0,.28-.23C8,25.87,8.11,25.46,8.17,25Zm41.91.23a.78.78,0,0,0-.18,0c-.14,0-.38-.12-.41.18s.22.19.36.21.23,0,.21.17a.22.22,0,0,1-.18.23.81.81,0,0,1-1-.34.84.84,0,0,1,.38-1,1,1,0,0,1,.88-.07c.18.07.31,0,.37-.16s-.13-.22-.24-.25a1.79,1.79,0,0,0-1.17.05,1.31,1.31,0,0,0-.47,2,1.45,1.45,0,0,0,1.57.17c.46-.2.3-.64.33-1S50.21,25.37,50.08,25.28Zm2.2-1.11a1.71,1.71,0,0,1-.29,0c-.34-.06-.47.05-.56.41a7.48,7.48,0,0,1-.28,1.72c-.06.13,0,.19.13.2q.64,0,1.29,0c.16,0,.19-.14.19-.28s-.13-.15-.24-.15h-.57c-.1,0-.25,0-.23-.14s0-.3.18-.34.2,0,.28,0,.57.18.57-.19-.37-.11-.55-.19-.39.1-.36-.22,0-.41.35-.38a5.52,5.52,0,0,0,.62,0c.18,0,.19-.13.21-.26s-.11-.15-.22-.16Zm-21.79,0a6.81,6.81,0,0,1-1.26-.11.22.22,0,0,0-.29.22,16.18,16.18,0,0,1-.2,1.94c0,.11,0,.25.13.25H30c.17,0,.19-.14.2-.28s-.13-.15-.23-.15h-.57c-.1,0-.25,0-.22-.15s0-.28.12-.32.26,0,.38,0,.56.18.54-.23-.33-.09-.5-.15a.32.32,0,0,0-.14,0c-.29,0-.32-.11-.26-.34.11-.45.47-.24.71-.24S30.52,24.54,30.48,24.19Zm-14.19,0h-.48c-.19,0-.29,0-.31.25-.07.6-.17,1.2-.26,1.8,0,.15,0,.3.18.3h1.15c.17,0,.19-.13.19-.27s-.1-.16-.22-.16H16c-.09,0-.26.06-.24-.13s0-.35.21-.36a2.44,2.44,0,0,0,.33,0c.18,0,.52.15.49-.24s-.31-.07-.45-.15-.09,0-.14,0-.32,0-.29-.25,0-.33.3-.31a1.69,1.69,0,0,0,.71,0c.14,0,.15-.14.16-.26s-.11-.16-.22-.16Zm-6.8,1a2.37,2.37,0,0,1,.07-.66c0-.12.11-.3-.13-.33s-.29.08-.31.26l-.23,1.8c0,.12-.07.26.12.29s.28-.05.3-.26a5.67,5.67,0,0,1,.11-.64c1,.93,1,.93,1.32.81a6.68,6.68,0,0,0-.6-.68c-.3-.26-.23-.45,0-.69s.53-.59.79-.89c-.13,0-.32-.06-.41,0C10.19,24.47,9.86,24.81,9.5,25.16Zm4.07.53c-.16-.49-.3-.91-.42-1.34-.06-.23-.23-.21-.37-.18s-.08.19-.05.29c.19.62.39,1.24.58,1.86,0,.09.06.2.16.2s.12-.09.16-.15l1.15-1.92c0-.08.12-.18,0-.25a.33.33,0,0,0-.27,0,.64.64,0,0,0-.27.31C14,24.88,13.82,25.25,13.57,25.69Zm40.74.82c.18,0,.35,0,.53,0s.23-.11.25-.27-.13-.17-.25-.17-.36,0-.54,0-.26-.06-.22-.27c.08-.42.13-.85.18-1.27,0-.13.18-.32-.11-.37s-.3.08-.33.29c0,.43-.12.85-.18,1.27C53.52,26.51,53.52,26.51,54.31,26.51Zm3.56-1.9c0,.27-.16.54-.12.84,0,.08-.08.17-.08.26,0,.43-.24.48-.56.36s-.26,0-.32.15.06.21.18.26a.84.84,0,0,0,1.16-.57,12.41,12.41,0,0,0,.2-1.36c0-.13.21-.37-.14-.38S57.77,24.29,57.87,24.61Zm-23.58,0c0-.25.1-.39-.12-.42s-.27,0-.3.25c-.07.58-.17,1.15-.26,1.72,0,.13-.28.31.09.37s.34-.1.37-.31C34.14,25.62,34.22,25,34.29,24.59Zm21.42,1.63c0,.13-.05.26.14.29s.26,0,.28-.22c.08-.61.18-1.22.26-1.83,0-.12.07-.29-.18-.3s-.24.12-.26.26C55.87,25,55.79,25.62,55.71,26.22Z"/><path class="cls-2" d="M1.52,15.87v-.14c.05,0,.16-.06.15-.09,0-.46.27-.86.24-1.33,0-.8.3-1.58.19-2.39a.4.4,0,0,1,.06-.18,2.72,2.72,0,0,0,.31-1.4,6.88,6.88,0,0,1,.25-2.19,10,10,0,0,0,.34-1.73,4.12,4.12,0,0,1,.14-1.59,2.89,2.89,0,0,0,.23-1.55,1,1,0,0,1,0-.47,7,7,0,0,0,.33-2c0-.5.16-.6.63-.6H64.07c.17,0,.25,0,.15.25a2.74,2.74,0,0,0-.16,1.38,5.45,5.45,0,0,1-.18,1.73,10.25,10.25,0,0,0-.31,1.79,3.08,3.08,0,0,1,0,1,5.47,5.47,0,0,0-.35,2,.78.78,0,0,1-.06.37,5.26,5.26,0,0,0-.3,1.26c-.11.56-.1,1.15-.16,1.72-.08.8-.23,1.6-.24,2.4a.86.86,0,0,1-.22.55c-.2.26-.47.54-.33.89a2.32,2.32,0,0,1,0,1.82,5,5,0,0,0-.2,1c0,.19,0,.31.25.31a12.78,12.78,0,0,1-.25,1.62c-.1,0-.19,0-.2.17a4.93,4.93,0,0,1-.35,1.6.73.73,0,0,1-.84.53H1.57c-.11,0-.22,0-.33,0-.38,0-.52-.26-.34-.6A1,1,0,0,0,1,21.51a10.5,10.5,0,0,1,.38-3c.05-.2.21-.35.2-.58C1.52,17.24,1.52,16.55,1.52,15.87ZM33.13,5.78c0-.16-.11-.2-.25-.19l-.62-.42A.27.27,0,0,0,32,5h0a2.7,2.7,0,0,0-2,0,0,0,0,0,1,0,0c-.14,0-.24,0-.26.21a10.74,10.74,0,0,0-.17,2.64l0,.23c-.31,0-.38.2-.38.49,0,.51-.1,1-.13,1.53a24.72,24.72,0,0,0-.25,2.58h0c-.18,0-.27.12-.37.26-.36.54-.6,1.16-1.38,1.33a3.93,3.93,0,0,1-1.75,0v-.11c.4-.38,0-.88.18-1.3l-.13,0h0v-.32l.1-.08c.35-.24-.07-.36-.09-.54.17,0,.19-.08.17-.21v-.33l.1-.17c.23-.31.09-.66.08-1l0-.32.1-.3h0c.23,0,.3-.1.29-.31,0-.48,0-1,0-1.45V7.61a1.17,1.17,0,0,0,.28-.05c.12-.05.31,0,.32-.23s-.14-.17-.25-.23-.16-.22,0-.34.16-.45-.07-.59a2.7,2.7,0,0,0-.89-.39l-.1-.1c-.19-.26-.34-.61-.77-.48,0-.23-.1-.26-.29-.25-.46,0-.92,0-1.38,0-.3,0-.39.11-.42.37a6.21,6.21,0,0,1-.19,1.22,1.7,1.7,0,0,0-.37,1.22,17.45,17.45,0,0,0-.22,2.39.3.3,0,0,1,0,.14A4.4,4.4,0,0,0,21.26,12a10.18,10.18,0,0,1,0,1.39c-.09.91.5,1.52.93,2.19.1.16.27.14.43.13h0c0,.26.16.37.37.51.36.25.87.16,1.15.55l.8.56c0,.09,0,.25,0,.25.36,0,.71.29,1.08.06l.2.11c.23.16.23.16.68-.11.21.12.42.26.69.16.39.2.77.35,1-.17a.07.07,0,0,1,.08,0c.07.31.45.23.49.18.42-.41,1-.37,1.48-.74a.81.81,0,0,1,.74-.23.68.68,0,0,1-.22-.62l.18-.06a1,1,0,0,0,.55-.77l.06-.16c.19,0,.28-.13.19-.33l0,0a.47.47,0,0,0,.22-.68l-.09-.08,0-.24h.18c.4-.13.19-.32.05-.5l.1-.17c.23,0,.27-.14.21-.31s-.06-.26,0-.35c.31-.29.16-.49-.13-.66l0-.26c.13-.08.19-.17.06-.31.11-.29.46-.53.19-.91v-.26c.26-.06.28-.19.12-.38l-.13-.28c.15-.07.26-.17.21-.36L33.2,9l.12-.23h0a1.07,1.07,0,0,0,.41-1A2.56,2.56,0,0,1,34,6.15l-.38.06h0c0-.41-.23-.44-.53-.42Zm11.12,1a.08.08,0,0,0-.08,0c-.51-.2-.15-.59-.2-.94-.1.25-.24.41-.49.38l-.39-.39A1.06,1.06,0,0,0,41.89,5,2,2,0,0,1,41,4.74a2.26,2.26,0,0,0-1.4,0,1.28,1.28,0,0,1-.83,0,1.94,1.94,0,0,0-.87-.15c-.33,0-.75.18-.94.1-.69-.29-.5.19-.53.49a4.61,4.61,0,0,0,0,.48.05.05,0,0,1,0,.08.7.7,0,0,0-.44.8,2.05,2.05,0,0,1,0,1.36A7,7,0,0,0,35.64,11s0,.09,0,.12-.15.1-.21.21c-.33.58-.17,1.25-.33,1.87s0,1.55-.22,2.32c-.11.45-.17,1,.58,1.1a2.71,2.71,0,0,0,1.65,1c.33.07.61.41,1,.22h0c.22,0,.56.29.54-.24l0-.14c.32-.09,0-.27.06-.4h0a1.49,1.49,0,0,0,.24-.21c.07-.09.24-.15.18-.28s-.22,0-.34-.08l0-.19c.3-.12.22-.29.06-.47l0-.1c.16-.2.57-.39.05-.64L38.88,15a.21.21,0,0,1,.11-.19h.07c.12,0,.17.19.32.15s-.4-.57.22-.4l0-.22h0l.42-.08A6.36,6.36,0,0,0,41,15.82c0,.33.17.45.49.38h.08c0,.33.24.27.42.31s.48.45.84.44c.47.23.84.67,1.42.66,0,.33.13.46.48.33a1.87,1.87,0,0,1,.82-.16c.26,0,.46-.15.43-.49a4.51,4.51,0,0,1,.07-1c.11-.67-.11-.92-.66-.9h0a.33.33,0,0,0-.24-.43c-.29-.11-.63-.32-.13-.71-.23,0-.41-.08-.55.06a.33.33,0,0,1-.39.07c-.17-.09-.09-.24,0-.38s0-.34-.2-.38l.07-.08c.1-.16.46,0,.43-.3h0c.17,0,.36.14.48,0a.23.23,0,0,0-.12-.35l-.05-.13,0-.26c.13.05.28.16.36-.06.46,0,.58-.28.38-.69l0,0h0c.17-.11.18-.29.2-.47h0c.42-.08.36-.3.16-.56l0-.09c.17-.15.08-.33.07-.5l0-.22c.21-.11.08-.24,0-.36a0,0,0,0,1,0-.06c.33,0,.18-.26.11-.35a.91.91,0,0,1-.21-.34,0,0,0,0,1,0-.06c.34-.32,0-.41-.18-.56s-.28,0-.16-.19,0-.42-.18-.59-.38-.32-.46-.53c-.16-.43-.32-.22-.5-.05h-.09Zm-37,10a.48.48,0,0,0,.22.49,2.13,2.13,0,0,1,.46.4c.3.35.5.36.85,0a1,1,0,0,1,.43.13c.15.1.3.07.32-.16h.16c.14,0,.3,0,.43.12s.17,0,.18-.11h.25c.38.3.68.3.88,0v0l0,0c.15,0,.31,0,.44.14s.14,0,.16-.13a.29.29,0,0,1,.27,0,3,3,0,0,0,1.56.11,1.74,1.74,0,0,0,1-.23,2.34,2.34,0,0,1,.8-.44c.36-.13.83-.06,1-.53,0-.06.12-.15.17-.14.32,0,.06-.2.15-.27l.09,0c.26,0,.52,0,.46-.4l0,0,0,0a.39.39,0,0,0,.4-.38l0-.17c.41,0,.64-.16.6-.6l.06-.1c0,.05.08.19.11,0a.92.92,0,0,1,.38-.65c.34-.16.06-.24,0-.35v0l0-.26h0l0,0a1.3,1.3,0,0,0,.32-1.13l0-.2a.64.64,0,0,0,0-.4c0-.22-.11-.34-.25-.46.05-.11.23,0,.26-.19v-.18c.06-.18-.07-.33-.09-.49a.78.78,0,0,0-.37-.54V9.36h0l0,0c0-.34-.3-.46-.49-.65.2-.77.07-1.07-.62-1.4A.36.36,0,0,1,18,7.21c-.22-.24-.32-.21-.46.13l.06.15-.4-.19h0c0-.61-.62-.87-.79-1.39l-.18.25h0c.12-.29-.16-.32-.3-.42A2.62,2.62,0,0,0,14.15,5a.36.36,0,0,1-.27-.07,1.21,1.21,0,0,0-1.11-.34c-1.23.11-2.48,0-3.72,0a.37.37,0,0,1-.27-.05c-.26-.22-.71-.09-.7.23,0,.59-.31,1.12-.23,1.72a2.13,2.13,0,0,1-.12.92,3.79,3.79,0,0,0-.24,1c0,.57,0,1.15,0,1.72v0c-.27,0-.19.25-.2.41a2.68,2.68,0,0,1-.06.71,3.43,3.43,0,0,0-.32,1.44,4.63,4.63,0,0,1-.24,2c-.18.45,0,1-.31,1.35-.09.1.07.21.16.26s.45.2.68.29ZM49.28,5a.22.22,0,0,0-.06.21l0,.18c-.35.13-.09.45-.21.66a6.11,6.11,0,0,0-.33,1.67,6.72,6.72,0,0,0,0,1.61l0,.28a.23.23,0,0,0-.17.14,6.29,6.29,0,0,0-.35,1.68c-.17.68,0,1.42-.19,2.14a4.88,4.88,0,0,0-.25,1.56.73.73,0,0,1-.52.72c.37,0,.29.4.55.45v0c-.05.14.46.25,0,.41-.1,0-.23.09-.18.23s.18.1.29.1c.26,0,.57-.07.74.21a1.33,1.33,0,0,0,1.35.56c.14,0,.26,0,.26-.2l.16,0c.2.08.41.22.62,0l.28-.08c.11-.05.25-.07.26-.24l0-.21c-.1-.15.36-.24.05-.42l-.05-.25c.07-.14.3-.21.16-.42l-.14-.22c.06-.06.17-.07.18-.19l0-.17a2.69,2.69,0,0,0,.39-1.08c.1-.3.14-.46-.13-.63v-.12a1.78,1.78,0,0,0,.5-.57c.13,0,.06.17.17.18,0,.28.32.15.38.35s.22.35.4,0,.42-.27.54,0,.29.21.48.05c.35-.28.67-.52,1.18-.27.24.11.57-.07.84-.19l.1,0a.17.17,0,0,0,.19-.2c.15-.05.08-.18.09-.27.2-.27.42-.54.17-.9.06-.19-.05-.31-.18-.42,0-.42,0-.82-.56-.8-.17,0-.2-.13-.2-.26s0-.32,0-.47,0-.19-.16-.2-.2.06-.21.2,0,.47,0,.71l-.17,0c0-.14,0-.3-.2-.32v0c0-.32-.07-.49-.4-.25a.5.5,0,0,1-.32.07H52c-.11,0-.23,0-.29-.12L52,9.81c.12-.05.28.1.38-.07l.14,0a.8.8,0,0,0,.23,0c.14,0,.42.11.4-.13s-.26,0-.39-.07,0,0-.06-.07c.39-.21.31-.36-.06-.47a0,0,0,0,1,0-.07l.48-.5c.13-.13.07-.18-.07-.21h0l-.19-.18.28,0h.44c.14,0,.31.11.43-.07a.18.18,0,0,1,.18-.09c.17.27.45.15.68.18h.49l.43,0,.43,0c.15,0,.32.09.44-.08L57,8a.87.87,0,0,0,.56.1l.21-.19.38.19c.17,0,.51,0,.41-.2s0-.74-.19-1.08h0c.12,0,.21,0,.24-.14a1.34,1.34,0,0,0-.88-1.31c-.1,0-.15.11-.17.2l-.19-.16c0-.51-.38-.34-.65-.38l-.13-.09H51.43a18.14,18.14,0,0,0-2.09,0A.06.06,0,0,1,49.28,5Z"/><path class="cls-3" d="M61.92,18.71c-.21,0-.29-.12-.25-.31a5,5,0,0,1,.2-1,2.32,2.32,0,0,0,0-1.82c-.14-.35.13-.63.33-.89a.86.86,0,0,0,.22-.55c0-.81.16-1.61.24-2.4.06-.57,0-1.16.16-1.72a5.26,5.26,0,0,1,.3-1.26.78.78,0,0,0,.06-.37,5.47,5.47,0,0,1,.35-2,3.08,3.08,0,0,0,0-1,10.25,10.25,0,0,1,.31-1.79,5.45,5.45,0,0,0,.18-1.73A2.74,2.74,0,0,1,64.22.46c.1-.24,0-.24-.15-.25H4.44c-.47,0-.61.1-.63.6a7,7,0,0,1-.33,2,1,1,0,0,0,0,.47,2.89,2.89,0,0,1-.23,1.55,4.12,4.12,0,0,0-.14,1.59,10,10,0,0,1-.34,1.73,6.88,6.88,0,0,0-.25,2.19,2.72,2.72,0,0,1-.31,1.4.4.4,0,0,0-.06.18c.11.81-.24,1.59-.19,2.39,0,.47-.28.87-.24,1.33,0,0-.1.06-.15.09.07-1.1.27-2.18.42-3.27.42-3.11.87-6.21,1.3-9.32.13-.95.27-1.89.39-2.84C3.67.1,3.74,0,4,0a3.47,3.47,0,0,0,.43,0H64.19c.31,0,.37.07.33.37q-.7,4.87-1.38,9.74c-.15,1-.27,2.08-.42,3.12C62.45,15.06,62.19,16.88,61.92,18.71Z"/><path class="cls-3" d="M1.52,15.87c0,.69,0,1.37,0,2.06,0,.23-.15.38-.2.58a10.5,10.5,0,0,0-.38,3A1,1,0,0,1,.89,22c-.17.34,0,.56.34.6.11,0,.22,0,.33,0H60.29a.73.73,0,0,0,.84-.53,4.93,4.93,0,0,0,.35-1.6c0-.12.09-.16.2-.17,0,.75-.19,1.48-.28,2.23,0,.2-.11.23-.28.22H1.59c-.35,0-.8.12-1,0s.06-.63.1-1c.24-1.93.52-3.85.78-5.77A.44.44,0,0,1,1.52,15.87Z"/><path class="cls-3" d="M.62,25.37a3.09,3.09,0,0,0-.17.86c0,.17-.08.32-.3.28S0,26.31,0,26.18c.09-.57.18-1.13.29-1.7,0-.11,0-.29.17-.3s.17.16.22.27l.56,1.3c.58-.42.59-1.26,1.31-1.64a14.87,14.87,0,0,1-.19,2.27c0,.14-.16.13-.27.13S2,26.39,2,26.27s0-.5.08-.82a3.49,3.49,0,0,0-.65.86c-.17.26-.3.25-.42,0Z"/><path class="cls-3" d="M44,25.49c-.19.27-.39.53-.57.81s-.32.24-.43-.06-.2-.5-.33-.8a2,2,0,0,0-.21.83c0,.17-.08.26-.27.25s-.17-.16-.15-.28c.1-.63.2-1.26.31-1.88,0-.08,0-.16.13-.18s.16.09.2.17l.61,1.44a7.86,7.86,0,0,0,.81-1.19,1.54,1.54,0,0,1,.24-.28c.07-.07.12-.17.23-.12s.07.17.06.25c-.06.62-.14,1.23-.2,1.85,0,.2-.14.23-.3.22s-.15-.17-.14-.29.06-.47.09-.71Z"/><path class="cls-3" d="M25.88,25.78c.11-.37,0-.92.22-1.4,0-.07,0-.19.11-.19a2.26,2.26,0,0,1,1.52.23,1,1,0,0,1,.32,1.08,1.25,1.25,0,0,1-1,1,2.79,2.79,0,0,1-.61.07C25.83,26.54,25.83,26.53,25.88,25.78Zm.75.31a.86.86,0,0,0,1-.76A.62.62,0,0,0,27,24.6c-.45-.08-.6.12-.6.54a3.06,3.06,0,0,1-.09.61C26.28,26,26.4,26.13,26.63,26.08Z"/><path class="cls-3" d="M31.85,24.17a.71.71,0,0,0,.22,0c.47-.2.64.15.79.46a.76.76,0,0,1-.19.87c-.27.28-.33.46.09.59.25.08,0,.24.05.36s-.11.11-.22.09a.64.64,0,0,1-.55-.46.32.32,0,0,0-.37-.23c-.22,0-.17.2-.18.33s0,.35-.29.34-.16-.25-.16-.39c0-.56.18-1.11.19-1.68S31.68,24.26,31.85,24.17Zm0,1.28c.4,0,.62-.17.61-.52s-.27-.33-.49-.32c-.44,0-.2.42-.3.63S31.75,25.44,31.83,25.44Z"/><path class="cls-3" d="M46.69,24.15a1,1,0,0,1,1.08,1.06,1.41,1.41,0,0,1-1.41,1.33,1,1,0,0,1-1.09-1.09A1.36,1.36,0,0,1,46.69,24.15Zm-.26,2a1,1,0,0,0,.88-.9.68.68,0,0,0-.69-.7.91.91,0,0,0-.87.9A.68.68,0,0,0,46.42,26.15Z"/><path class="cls-3" d="M18.27,24.17a1.72,1.72,0,0,1,.28,0c.33.07.74.06.87.45a.88.88,0,0,1-.3,1c-.26.21-.08.36.07.43s.33.14.22.35-.33.13-.51.07-.25-.27-.33-.44a.3.3,0,0,0-.3-.18c-.2,0-.17.15-.2.26a.8.8,0,0,0,0,.18c0,.18-.08.25-.26.24a.25.25,0,0,1-.22-.31c.09-.64.19-1.28.31-1.91C17.9,24,18.18,24.28,18.27,24.17Zm.16,1.27c.3,0,.53-.12.54-.47s-.23-.38-.48-.37c-.44,0-.22.4-.3.62S18.27,25.45,18.43,25.44Z"/><path class="cls-3" d="M21.34,24.15c.62,0,.91.28.87.9A9.62,9.62,0,0,1,22,26.28c0,.09-.05.25-.23.24s-.15-.17-.15-.27-.07-.32-.3-.28-.8-.21-.81.44c0,.12-.17.12-.28.1s-.15-.13-.14-.25c.07-.44.11-.88.21-1.32A.92.92,0,0,1,21.34,24.15Zm-.2,1.43c.63,0,.63,0,.63-.55,0-.3-.12-.48-.44-.49s-.66.36-.65.84S21,25.47,21.14,25.59Z"/><path class="cls-3" d="M4.49,24.15c.63,0,.92.29.87.91,0,.4-.12.79-.17,1.18,0,.16,0,.28-.24.27s-.22-.14-.18-.29,0-.3-.25-.26-.81-.25-.85.41c0,.14-.15.15-.26.14s-.17-.13-.15-.25a11.23,11.23,0,0,1,.25-1.46A.93.93,0,0,1,4.49,24.15Zm-.23,1.43c.64,0,.65,0,.65-.53,0-.32-.13-.51-.47-.51s-.61.36-.62.82S4.16,25.48,4.27,25.59Z"/><path class="cls-3" d="M36.59,25.6c.07-.47.13-.81.17-1.16,0-.19.05-.29.28-.28s.14.18.12.3l-.21,1.8c0,.08,0,.17-.09.21s-.17,0-.23-.12l-1.06-1.23c-.06.42-.11.75-.15,1.09,0,.18-.06.31-.28.3s-.19-.21-.17-.35c.08-.55.16-1.1.25-1.65,0-.11-.05-.29.12-.32s.2.13.28.23Z"/><path class="cls-3" d="M39.49,25.27c.17.11.53-.14.5.16s.14.79-.36,1c-1,.39-1.92-.13-1.82-1.06a1.49,1.49,0,0,1,2-1.11c.12.06.19.1.1.24s-.1.24-.28.16a1.08,1.08,0,0,0-.88,0,.88.88,0,0,0-.48,1,.81.81,0,0,0,1,.4c.12,0,.19-.09.2-.22s0-.16-.15-.19-.45.16-.42-.19S39.33,25.39,39.49,25.27Z"/><path class="cls-3" d="M23.23,24.11a15.21,15.21,0,0,1,1.34,1.46c.05-.38.1-.71.14-1s0-.41.33-.36.14.28.12.42c-.08.63-.18,1.25-.29,2-.52-.38-.81-.93-1.29-1.35a4.08,4.08,0,0,0-.18,1c0,.2-.08.34-.32.3s-.13-.2-.12-.33Z"/><path class="cls-3" d="M8.17,25c-.06.41-.13.82-.18,1.24,0,.18-.11.25-.28.23s-.17-.16-.15-.28-.05-.3-.25-.26-.8-.25-.83.41c0,.16-.18.15-.31.13S6,26.35,6,26.24c.06-.41.1-.82.18-1.23a1.08,1.08,0,0,1,1.41-.83A.75.75,0,0,1,8.17,25Zm-1.06.53c.37.07.64,0,.59-.45,0-.27,0-.6-.44-.59a.86.86,0,0,0-.71.82C6.6,25.71,6.91,25.55,7.11,25.58Z"/><path class="cls-3" d="M50.08,25.28c.13.09.48-.15.45.15s.13.76-.33,1a1.45,1.45,0,0,1-1.57-.17,1.31,1.31,0,0,1,.47-2,1.79,1.79,0,0,1,1.17-.05c.11,0,.32,0,.24.25s-.2.23-.37.16a1,1,0,0,0-.88.07.84.84,0,0,0-.38,1,.81.81,0,0,0,1,.34.22.22,0,0,0,.18-.23c0-.17-.1-.16-.21-.17s-.39.11-.36-.21.26-.14.41-.18A.78.78,0,0,1,50.08,25.28Z"/><path class="cls-3" d="M59.71,25.08c.24-.23.49-.45.72-.69a.59.59,0,0,1,.67-.19,2.57,2.57,0,0,1-.76.82c-.38.3-.35.52,0,.81a7.3,7.3,0,0,1,.59.65c-.78.16-.9-.59-1.37-.83-.14.19-.07.42-.11.63s-.16.25-.34.23-.24-.19-.19-.35a10.43,10.43,0,0,0,.36-1.89c0-.12,0-.2.18-.2s.24.08.24.22,0,.47-.06.71c-.06,0-.08.12,0,.16S59.67,25.11,59.71,25.08Z"/><path class="cls-3" d="M52.28,24.17h.52c.11,0,.24,0,.22.16s0,.26-.21.26a5.52,5.52,0,0,1-.62,0c-.31,0-.33.17-.35.38s.23.16.36.22.56-.21.55.19-.37.13-.57.19-.19,0-.28,0-.17.2-.18.34.13.14.23.14h.57c.11,0,.23,0,.24.15s0,.27-.19.28q-.64,0-1.29,0c-.09,0-.19-.07-.13-.2a7.48,7.48,0,0,0,.28-1.72c.08-.36.22-.47.56-.41A1.72,1.72,0,0,0,52.28,24.17Z"/><path class="cls-3" d="M30.48,24.19c0,.34-.12.42-.44.42s-.6-.2-.71.24c-.06.23,0,.38.26.34a.32.32,0,0,1,.14,0c.17.06.48-.16.5.15s-.35.18-.54.23-.26,0-.38,0-.11.21-.12.32.12.15.22.15H30c.11,0,.24,0,.23.15s0,.27-.2.28H28.85c-.17,0-.13-.15-.13-.25a16.18,16.18,0,0,0,.2-1.94.22.22,0,0,1,.29-.22A6.81,6.81,0,0,0,30.48,24.19Z"/><path class="cls-3" d="M16.3,24.17h.53c.11,0,.23,0,.22.16s0,.21-.16.26a1.69,1.69,0,0,1-.71,0c-.26,0-.27.11-.3.31s.14.24.29.25.1,0,.14,0,.44-.17.45.15-.31.2-.49.24a2.44,2.44,0,0,1-.33,0c-.24,0-.19.23-.21.36s.14.12.24.13h.57c.12,0,.23,0,.22.16s0,.26-.19.27H15.43c-.22,0-.2-.15-.18-.3.09-.6.19-1.2.26-1.8,0-.22.13-.26.31-.25Z"/><path class="cls-3" d="M9.5,25.16c.37-.35.69-.69,1.05-1,.08-.07.28,0,.41,0-.26.3-.51.61-.79.89s-.31.43,0,.69a6.68,6.68,0,0,1,.6.68c-.35.12-.35.12-1.32-.81a5.67,5.67,0,0,0-.11.64c0,.21-.1.29-.3.26s-.14-.17-.12-.29l.23-1.8c0-.18.11-.29.31-.26s.15.21.13.33A2.37,2.37,0,0,0,9.5,25.16Z"/><path class="cls-3" d="M13.57,25.69c.25-.44.48-.81.68-1.2a.64.64,0,0,1,.27-.31.33.33,0,0,1,.27,0c.1.06,0,.16,0,.25l-1.15,1.92c0,.06-.1.15-.16.15s-.13-.1-.16-.2c-.19-.62-.39-1.24-.58-1.86,0-.1-.18-.25.05-.29s.31,0,.37.18C13.26,24.78,13.41,25.2,13.57,25.69Z"/><path class="cls-3" d="M54.31,26.51c-.79,0-.79,0-.68-.78.06-.42.14-.85.18-1.27,0-.22.1-.33.33-.29s.12.24.11.37c0,.43-.1.85-.18,1.27,0,.21,0,.29.22.27s.36,0,.54,0,.27,0,.25.17,0,.28-.25.27S54.48,26.51,54.31,26.51Z"/><path class="cls-3" d="M57.87,24.61c-.09-.33,0-.46.32-.44s.15.25.14.38a12.41,12.41,0,0,1-.2,1.36.84.84,0,0,1-1.16.57c-.13,0-.26-.09-.18-.26s.13-.22.32-.15.56.07.56-.36c0-.09.09-.18.08-.26C57.71,25.15,57.88,24.88,57.87,24.61Z"/><path class="cls-3" d="M34.29,24.59c-.06.45-.14,1-.22,1.61,0,.22-.11.35-.37.31s-.11-.24-.09-.37c.09-.57.19-1.15.26-1.72,0-.2.1-.28.3-.25S34.31,24.33,34.29,24.59Z"/><path class="cls-3" d="M55.71,26.22c.08-.6.17-1.2.25-1.79,0-.15.05-.27.26-.26s.2.18.18.3c-.08.61-.18,1.22-.26,1.83,0,.19-.11.25-.28.22S55.7,26.35,55.71,26.22Z"/><path class="cls-1" d="M7.49,10.18v0C7.8,8.59,8,7,8.15,5.46c.05-.49.22-.51.61-.49.79,0,1.58,0,2.36,0,1.83-.08,3.62,0,5.15,1.2h0a10.45,10.45,0,0,1,1,1.14h0s0,.1,0,.14a4.87,4.87,0,0,1,.6,3.22A6.62,6.62,0,0,1,11.7,16.3c-1.3.11-2.62,0-3.92,0-.35,0-.81.11-1-.07s0-.65,0-1c0-.14,0-.28.06-.43Zm6.88,3.06a1.25,1.25,0,0,0,.47-.56,3.31,3.31,0,0,0,.84-2,3.2,3.2,0,0,0-1.27-3.18,3.11,3.11,0,0,0-1.23-.58c-.42-.13-.83.09-1.21,0a11.65,11.65,0,0,0-1.56-.09c-.32,0-.41.11-.44.39-.1.85-.23,1.7-.35,2.55-.2,1.43-.4,2.87-.61,4.3-.05.34,0,.47.39.45.65,0,1.31,0,2,0a4.35,4.35,0,0,0,3-1.25Z"/><path class="cls-1" d="M41.55,16.22h-.08c-.11-.19-.32-.26-.49-.38a6.36,6.36,0,0,1-.92-1.63c-.37-1-.55-1.14-1.61-1.15a2.77,2.77,0,0,1-.52,0c-.47-.09-.55.17-.59.55-.09.8-.22,1.6-.32,2.41,0,.27-.14.38-.42.36s-.73,0-1.1,0c-.59,0-.59,0-.53-.57,0-.07.06-.14.08-.22q.3-2.22.6-4.43s.05-.08,0-.12c.32-1.74.55-3.48.74-5.24a.05.05,0,0,0,0-.08c0-.06.07-.12.07-.17,0-.49.21-.59.66-.57,1,0,1.9,0,2.85,0a5.24,5.24,0,0,1,3.11.81l.39.39c1.47,1.84.71,5.14-1.87,6.46.19.29.39.58.57.88a1.65,1.65,0,0,0,1.69,1c.29,0,.31.12.28.34A8.69,8.69,0,0,0,44,16c0,.34-.19.39-.45.41A5.28,5.28,0,0,1,41.55,16.22Zm-.11-8.91a2.81,2.81,0,0,0-2-.49c-.36,0-.82-.1-1.06.07s-.16.64-.21,1q-.22,1.53-.42,3.06c0,.11-.13.32.14.3A9.06,9.06,0,0,0,40,11.14a1.5,1.5,0,0,0,.72-.21A2.35,2.35,0,0,0,41.44,7.31Z"/><path class="cls-1" d="M22.23,6.54a6.21,6.21,0,0,0,.19-1.22c0-.26.12-.39.42-.37.46,0,.92,0,1.38,0,.19,0,.32,0,.29.25a.82.82,0,0,0-.06.17q-.3,2.1-.59,4.2c-.12.87-.26,1.73-.33,2.6a2.11,2.11,0,0,0,.83,2.15,3,3,0,0,0,4.38-1.66h0a28,28,0,0,0,.76-4.6l0-.23c.21-.94.29-1.9.43-2.84a0,0,0,0,0,0,0c.66,0,1.33,0,2,0h0c-.32,2.25-.63,4.5-1,6.75a5.7,5.7,0,0,1-1.87,3.66,5.91,5.91,0,0,1-6.54.3h0a3.84,3.84,0,0,1-1.16-2.88,13.25,13.25,0,0,1,.2-2C21.85,9.38,22.1,8,22.23,6.54Z"/><path class="cls-1" d="M49.21,5.39l0-.18L49.28,5a.06.06,0,0,0,.06-.06h7a1.74,1.74,0,0,0,.28,0L56.7,5a11.08,11.08,0,0,0-.19,1.32c0,.44-.21.51-.6.5-1.51,0-3,0-4.54,0-.25,0-.35.05-.38.32-.1.84-.2,1.67-.36,2.5-.09.47.07.51.47.51,1.42,0,2.83,0,4.25,0v0a10,10,0,0,0-.17,1.27c0,.42-.2.47-.55.47-1.29,0-2.58,0-3.86,0-.39,0-.47.14-.51.48-.15,1.2-.33,2.39-.5,3.58,0,.27-.13.42-.45.4-.54,0-1.08,0-1.62,0v0l.94-6.69,0-.28C48.89,8,49.06,6.71,49.21,5.39Z"/><path class="cls-3" d="M7.49,10.18l-.62,4.69c0,.14,0,.28-.06.43,0,.34-.29.78,0,1s.67.07,1,.07c1.31,0,2.62.07,3.92,0a6.62,6.62,0,0,0,6.14-5.63,4.87,4.87,0,0,0-.6-3.22s0-.09,0-.14l.4.19a3.79,3.79,0,0,0,1,.73,1.81,1.81,0,0,0-1.05-.88c.14-.35.24-.37.46-.13a.36.36,0,0,0,.11.08c.69.34.82.63.62,1.4L18,8.16c0,.25.09.37.25.48l1,.72v.26l-1-.68a3.08,3.08,0,0,0,1.37,1.23c0,.17.14.31.09.5l-1.36-1-.13.17a5.42,5.42,0,0,0,1.49,1.05c0,.15-.2.08-.26.19l-1.15-.77-.1.13a6.75,6.75,0,0,0,1.5,1.1.64.64,0,0,1,0,.4l-1.43-1.06L18,11a6.34,6.34,0,0,0,1.51,1.12,1.3,1.3,0,0,1-.32,1.13c.1-.19,0-.32-.14-.44-.34-.23-.67-.49-1-.72-.07,0-.14-.23-.26-.09s0,.22.11.29l1.25.94,0,.26-1.31-.93c-.08-.05-.17-.2-.26,0s0,.17.1.23c.39.28.78.54,1.16.83.15.11.24.1.32-.05.05.11.33.19,0,.35a.92.92,0,0,0-.38.65c0,.15-.09,0-.11,0a12,12,0,0,0-1.38-1.06c-.06,0-.13-.09-.2,0a.12.12,0,0,0,0,.2,8.16,8.16,0,0,0,1.48,1c0,.44-.19.61-.6.6l-1.25-.87c-.09-.06-.2-.22-.31,0s.07.19.15.25l.94.66c.15.1.27.3.5.18a.39.39,0,0,1-.4.38c-.34-.55-1-.77-1.43-1.15,0,0-.12,0-.14.08s.06.14.12.18c.38.28.77.55,1.15.84a.28.28,0,0,0,.3,0c.06.38-.2.39-.46.4,0-.06.07-.15.06-.16l-1.37-1a.13.13,0,0,0-.2,0c-.08.12.05.15.12.2l1.3.94c-.09.07.17.32-.15.27-.05,0-.15.08-.17.14-.19.47-.66.4-1,.53a2.34,2.34,0,0,0-.8.44,1.74,1.74,0,0,1-1,.23,3,3,0,0,1-1.56-.11,3,3,0,0,0-1.5-1l-.07.11,1.3.94c0,.09,0,.24-.16.13s-.29-.1-.44-.14a2.85,2.85,0,0,0-1.56-1c.52.33.88.92,1.57,1-.19.3-.49.3-.88,0a3.08,3.08,0,0,0-1.57-1,6.87,6.87,0,0,0,1.32,1c0,.11,0,.24-.18.11s-.29-.08-.43-.12a3.19,3.19,0,0,0-1.58-1,4.57,4.57,0,0,0,1.42,1c0,.23-.16.26-.32.16a1,1,0,0,0-.43-.13l0,0a4.45,4.45,0,0,0-1.25-1,.29.29,0,0,0-.35,0c-.23-.1-.46-.18-.68-.29s-.24-.15-.16-.26c.33-.4.13-.9.31-1.35a4.63,4.63,0,0,0,.24-2,3.43,3.43,0,0,1,.32-1.44,2.68,2.68,0,0,0,.06-.71C7.3,10.42,7.22,10.21,7.49,10.18ZM18.86,14a.42.42,0,0,0-.08-.1l-1.29-1c-.05,0-.11-.08-.16,0s-.06.15,0,.21l1.3.94C18.75,14.15,18.83,14.13,18.86,14Zm.49-1.32.13-.14A8,8,0,0,0,18,11.38l-.14.18ZM13,16.33a4.55,4.55,0,0,0,1.74,1.09A2.83,2.83,0,0,0,13,16.33Zm2.82.49,0,0a12.18,12.18,0,0,0-1.41-1s-.1,0-.13,0,0,.11,0,.15c.42.3.84.62,1.27.91C15.64,17,15.75,17,15.79,16.83Zm1-.51a11.63,11.63,0,0,0-1.38-1.05.15.15,0,0,0-.21,0c-.06.09,0,.13.1.18l1.12.81C16.51,16.36,16.6,16.45,16.78,16.32Zm-.4.28-1.41-1a.15.15,0,0,0-.22,0c-.1.13,0,.16.1.21.3.23.61.45.93.66C15.92,16.55,16,16.76,16.37,16.61Zm-1.18.54c-.65-.73-1.27-1.09-1.58-1A6.21,6.21,0,0,0,15.19,17.15Zm1.65-3.39s-.07,0-.09.08,0,.17.11.22L18,14.9c.08.06.17.12.25,0s0-.17-.09-.22L17,13.83Zm-2.95,3.72c-.92-.89-1.19-1-1.59-.92C12.89,16.83,13.27,17.37,13.89,17.47Zm-2.24-.85c.5.31.84.88,1.51.9C12.66,17.21,12.32,16.64,11.65,16.62Z"/><path class="cls-3" d="M22.61,15.72a5.91,5.91,0,0,0,6.54-.3A5.7,5.7,0,0,0,31,11.76c.34-2.25.65-4.5,1-6.75a.27.27,0,0,1,.28.17.21.21,0,0,0,0,.35l1.15.82c.23.17.22,0,.21-.15L34,6.15a2.56,2.56,0,0,0-.3,1.56,1.07,1.07,0,0,1-.41,1,.28.28,0,0,0-.11-.37l-1.29-.92c0,.36.26.59,1.4,1.29L33.2,9,31.79,8c0,.14,0,.25,0,.28.44.34.89.66,1.34,1,0,0,.09-.07.13-.11,0,.19-.06.29-.21.36l-1.32-.89c-.12.18,0,.27.1.36l1.07.78c.09.06.17.15.28,0,.16.19.14.32-.12.38l-1.24-.86c-.07,0-.14-.17-.23,0a.15.15,0,0,0,0,.21,6.7,6.7,0,0,0,1.44.94c.27.37-.08.61-.19.91-.31-.21-.61-.45-.94-.64-.16-.09-.35-.43-.49-.22s.23.3.38.43c.31.26.66.49,1,.73l0,.26-1.16-.81c-.07,0-.13-.23-.25-.07s0,.2.1.27l1.12.8c.06,0,.13.14.18.08s0-.18,0-.27c.29.17.43.37.13.66-.1.09-.08.22,0,.35s0,.32-.21.31a5.77,5.77,0,0,0-1.48-1.09c.3.6.94.82,1.38,1.25.13.18.35.37-.05.5a.32.32,0,0,0-.16-.36c-.36-.24-.7-.51-1-.75-.07,0-.17-.21-.27-.05s0,.19.13.26l1.17.89,0,.24-1.21-.83c-.06,0-.13-.16-.23,0s0,.17.07.23l1.24.88c.2.14.18-.07.22-.16a.47.47,0,0,1-.22.68s0-.08,0-.09a11.88,11.88,0,0,0-1.38-1.07c-.07-.06-.11,0-.15,0s0,.16.05.19a8.44,8.44,0,0,0,1.45,1c.09.2,0,.3-.19.33l-1.31-1c-.07-.05-.16-.13-.24,0s0,.15.06.2a9.76,9.76,0,0,0,1.42,1,1,1,0,0,1-.55.77s0-.12,0-.13l-1.35-1c-.07,0-.13-.08-.2,0s0,.16.07.22l1.3,1a.68.68,0,0,0,.22.62.81.81,0,0,0-.74.23c-.43.37-1.06.34-1.48.74,0,0-.42.12-.49-.18.07-.07.45,0,.15-.22s-.73-.54-1.11-.81a.26.26,0,0,0-.38,0l1.26,1c-.27.52-.66.37-1,.17l0,0,0-.09-.08,0c-.55-.28-.92-.89-1.73-1l1.09.86c-.45.27-.45.27-.68.11.1,0,.23.05.35-.1-.54-.22-.86-.82-1.61-.86l1.06.84c-.37.23-.72,0-1.08-.06-.08,0-.05-.16,0-.25s.15.05.26,0c-.38-.15-.55-.64-1.06-.51-.28-.39-.79-.3-1.15-.55C22.77,16.08,22.61,16,22.61,15.72Zm5.9.47,1.31.95c.09.07.2.14.29,0S30,17,30,16.93c-.35-.27-.71-.52-1.07-.78C28.78,16.06,28.66,16,28.51,16.18ZM33,10.93c0-.14-.07-.17-.13-.22l-1.12-.8c-.06,0-.14-.17-.22,0s0,.18.09.24l1.19.87c.05,0,.11.08.16,0S33,10.93,33,10.93Zm-1.32,4.78s0-.09-.06-.11l-1.3-1a.1.1,0,0,0-.16,0,.13.13,0,0,0,0,.2l1.26.92C31.57,15.85,31.66,15.85,31.71,15.71ZM33.58,7c0-.11,0-.2,0-.23a11.48,11.48,0,0,0-1.32-1c-.07-.05-.12,0-.14.06s0,.15.07.22C32.65,6.35,33.09,6.67,33.58,7Zm-4.17,8.53,1.32,1c.09.06.19.15.28,0s-.06-.16-.12-.2l-1.15-.84C29.64,15.41,29.55,15.4,29.41,15.54Zm-.24.19a.89.89,0,0,0-.11.1c-.06.07,0,.11.05.15l1.22.9a.18.18,0,0,0,.26,0c.1-.12,0-.15-.11-.2l-1.15-.83Zm4.31-8.14c0-.08,0-.17,0-.2a6.45,6.45,0,0,0-1.35-1,.1.1,0,0,0-.16.05.18.18,0,0,0,.1.22C32.57,6.93,33,7.26,33.49,7.59Zm-6.71,9.16c.48.36.86.9,1.53,1A3.62,3.62,0,0,0,26.78,16.75Zm2.84.56-1.28-.93c-.08-.06-.17-.1-.26,0s-.06.1,0,.15l1.31.94C29.46,17.48,29.56,17.44,29.62,17.31Zm3.8-9.21C33.13,7.5,32.5,7.3,32,7A4,4,0,0,0,33.42,8.1Zm-2.1,3.5a3.92,3.92,0,0,0,1.42,1.15C32.45,12.17,31.83,12,31.32,11.61Z"/><path class="cls-3" d="M41.55,16.22a5.28,5.28,0,0,0,2,.16c.26,0,.44-.07.45-.41a8.69,8.69,0,0,1,.16-1.13c0-.22,0-.38-.28-.34a1.65,1.65,0,0,1-1.69-1c-.18-.3-.38-.58-.57-.88C44.18,11.3,44.94,8,43.48,6.16c.26,0,.39-.13.49-.38,0,.36-.31.74.2.94h0l0,0h0c.09.61.73.63,1,1-.14-.5-.62-.67-.93-1,.18-.17.34-.38.5.05.08.2.3.35.46.53s.41.29.18.59.09.13.16.19.52.24.18.56c-.29-.57-.92-.73-1.38-1.09a2.93,2.93,0,0,0,1.4,1.16.91.91,0,0,0,.21.34c.07.09.22.33-.11.35-.27-.64-1-.78-1.46-1.13a4.26,4.26,0,0,0,1.45,1.19c.05.12.19.26,0,.36l-1.44-1c0,.37.94,1.1,1.47,1.25,0,.17.09.36-.07.5a6.92,6.92,0,0,0-1.38-1.12s-.12-.05-.14,0a.19.19,0,0,0,.08.24,9.8,9.8,0,0,0,1.41.93c.19.26.26.48-.16.56a.33.33,0,0,0-.15-.4c-.37-.24-.72-.51-1.08-.77-.08-.06-.16-.2-.26,0s0,.19.13.26l1.35,1c0,.18,0,.36-.2.47a.29.29,0,0,0-.12-.36l-1.08-.77c-.08-.06-.19-.19-.28,0s.06.19.15.25l1.25.94c.2.41.07.65-.38.69l-1.29-1c-.08-.06-.17-.19-.28,0s0,.19.12.25l1.09.83,0,.26-1.21-.84c-.09-.06-.17-.25-.3-.07s.07.18.15.24c.36.28.73.55,1.09.85.14.12.23,0,.33,0a.23.23,0,0,1,.12.35c-.12.15-.32,0-.48,0a10.5,10.5,0,0,0-1.36-1c-.08-.06-.15-.13-.24,0s0,.16.1.2a11.11,11.11,0,0,1,1.06.8.29.29,0,0,0,.43,0c0,.34-.32.15-.43.3-.14-.22-.39-.31-.58-.47s-.51-.37-.77-.55c-.08-.06-.18-.09-.25,0a.13.13,0,0,0,0,.12c.52.3.89.85,1.53,1,.23,0,.27.18.2.38s-.12.29,0,.38a.33.33,0,0,0,.39-.07c.15-.14.32-.08.55-.06-.5.39-.15.59.13.71a.33.33,0,0,1,.24.43l-.91-.6c-.17.35.36.3.25.58-.15.07-.22-.15-.36-.11s0,.09,0,.1a8.74,8.74,0,0,0,1.3,1c.07.05.12,0,.15-.05s-.06-.13-.11-.17a5,5,0,0,1-1-.79c.47,0,.71.48,1.13.64.09-.39-.36-.38-.47-.62.55,0,.77.23.66.9a4.51,4.51,0,0,0-.07,1c0,.34-.17.51-.43.49a1.87,1.87,0,0,0-.82.16c-.35.14-.47,0-.48-.33a9.31,9.31,0,0,0-1.16-.87.38.38,0,0,0-.39,0l.13.24c-.36,0-.52-.35-.84-.44S41.52,16.55,41.55,16.22Zm2.26-5.36a1,1,0,0,0-.11.12c-.06.09,0,.14.06.19l1.23.88c.07,0,.13.13.22,0s0-.16-.07-.21l-.88-.64Zm.49,4.86c-.07.16-.08.27.06.36l1.12.8c.07,0,.16.16.24.05s0-.19-.11-.26Zm0,.62a.51.51,0,0,0-.08.1c-.05.12,0,.17.12.23l1.08.78c.08.05.18.2.27,0s0-.2-.14-.26l-1.12-.8Zm-.74.33c.51.33.86.9,1.53.92C44.55,17.27,44.19,16.71,43.53,16.67ZM42.2,12.92a2.2,2.2,0,0,0,.92,1,.12.12,0,0,0,.2,0c.07-.1,0-.14-.06-.18ZM43.77,14s-.07,0-.07.05a.08.08,0,0,0,0,.07.06.06,0,0,0,.08-.06S43.78,14.06,43.77,14Z"/><path class="cls-3" d="M47.69,16.33c.54,0,1.08,0,1.62,0,.32,0,.41-.12.45-.4.16-1.19.35-2.39.5-3.58,0-.34.12-.49.51-.48,1.29,0,2.57,0,3.86,0,.35,0,.55,0,.55-.47a10,10,0,0,1,.17-1.27c.21,0,.18.19.2.32s0,.23.09.3a11.3,11.3,0,0,0,1.4,1c.25.36,0,.63-.17.9l-1.15-.84c-.08-.06-.17-.21-.27-.1s0,.22.12.3l1.21.91a.17.17,0,0,1-.19.2A3.07,3.07,0,0,0,55,12.24c.5.29.82.86,1.46.93-.27.12-.6.31-.84.19-.51-.24-.84,0-1.18.27-.19.15-.32.31-.48-.05s-.39-.26-.54,0-.3.32-.4,0-.4-.08-.38-.35.27,0,.37-.16c-.53-.26-.88-.82-1.67-.89l1.12.87a1.79,1.79,0,0,1-.5.57l-1.45-1.05c-.08.15-.08.25,0,.33l1.27.91c.05,0,.12,0,.15-.07.27.17.23.33.13.63a2.69,2.69,0,0,1-.39,1.08,5.4,5.4,0,0,0-1.47-1.06,4.4,4.4,0,0,0,1.43,1.24c0,.11-.12.12-.18.19l-1.34-.91c0,.14,0,.25,0,.28.44.34.89.67,1.35,1,.09.06.06-.11.13-.14.14.21-.09.28-.16.42l-1.37-.94c-.13.24,0,.32.15.41s.42.33.66.47.32.39.61.31c.3.18-.15.26-.05.42l-1.45-1-.11.14a4.89,4.89,0,0,0,1.53,1.11c0,.17-.15.18-.26.24-.52-.31-.9-.87-1.57-.9a7,7,0,0,0,1.29,1c-.21.21-.41.07-.62,0a3.65,3.65,0,0,0-1.52-1,8.26,8.26,0,0,0,1.36,1c0,.18-.12.2-.26.2a1.33,1.33,0,0,1-1.35-.56c-.17-.28-.47-.2-.74-.21-.11,0-.24,0-.29-.1s.08-.2.18-.23C48.16,16.57,47.64,16.46,47.69,16.33Zm.69.28c-.08-.11-.16-.11-.24,0a3.36,3.36,0,0,0,1.46.94Zm2.1-3.46c-.15.23,0,.3.12.4.34.23.65.5,1,.72.06,0,.11.3.26.09s0-.21-.13-.29Zm1.32,1.69c0-.09-.07-.12-.15-.18-.36-.25-.72-.52-1.08-.78-.06,0-.11-.2-.22-.06a.16.16,0,0,0,.05.25l1.19.86C51.69,15,51.78,15,51.8,14.84Zm5.1-2.47c.13-.21,0-.31-.12-.4l-1-.75c-.06,0-.12-.19-.22-.06s0,.2.08.27Zm-1.24.75c-.5-.31-.85-.88-1.52-.88C54.64,12.54,55,13.1,55.66,13.11Zm-5-.88c.51.31.87.89,1.53.91C51.64,12.81,51.27,12.25,50.61,12.23Zm3.31.91c-.89-.8-1.15-.95-1.56-.9C53.29,13,53.48,13.12,53.92,13.14Zm-.75-1c.94.83,1.25,1,1.66.9C54.26,12.81,53.92,12.24,53.17,12.17Z"/><path class="cls-3" d="M28.73,12.67a3,3,0,0,1-4.38,1.66,2.11,2.11,0,0,1-.83-2.15c.07-.87.21-1.73.33-2.6q.29-2.1.59-4.2a.82.82,0,0,1,.06-.17c.44-.14.58.21.77.48l-.06.07A.72.72,0,0,0,25,5.66c-.12,0-.2-.29-.34-.11s.08.24.19.32l1.19.85c.11-.21,0-.31-.15-.4s-.43-.32-.64-.48l.07-.06a2.7,2.7,0,0,1,.89.4c.22.13.33.35.07.59s-.14.25,0,.34.26,0,.25.23-.2.18-.32.23a1.17,1.17,0,0,1-.28.05l-1.43-1-.1.12A4.41,4.41,0,0,0,26,7.84c0,.48,0,1,0,1.45,0,.21-.06.33-.29.31,0-.12,0-.24-.13-.33-.38-.25-.75-.53-1.13-.8-.06,0-.11-.15-.19-.06a.16.16,0,0,0,0,.25,7.94,7.94,0,0,0,1.41.95l-.1.3-1.41-1c0,.3,0,.3,1.38,1.28,0,.33.15.68-.08,1A5.51,5.51,0,0,0,24,10.17a6.62,6.62,0,0,0,1.43,1.23v.33L24,10.67c-.14.26,0,.34.18.44l1.11.82c0,.18.43.3.09.54-.34-.59-1-.8-1.49-1.15.33.57.94.81,1.39,1.23v.32L24,12c-.07,0-.13-.17-.23-.07s0,.2.07.27c.39.29.79.58,1.19.86s.17-.07.19-.17l.13,0c-.19.41.22.91-.18,1.3a4.79,4.79,0,0,0-1.28-.95l0-.06,0,0,.06,0a2,2,0,0,0,1.29,1.06,3.93,3.93,0,0,0,1.75,0c.78-.18,1-.79,1.38-1.33C28.46,12.79,28.55,12.67,28.73,12.67ZM24.54,7.21s-.09,0-.1.06a.19.19,0,0,0,.09.24l1.15.83c.06,0,.14.17.23,0s0-.18-.09-.24l-.88-.64Zm1.25,1.85c.06-.16.08-.26,0-.34l-1.2-.86c-.07,0-.14-.09-.19,0a.15.15,0,0,0,.07.2Zm-1.17-3a3.52,3.52,0,0,0,1.44,1.15A4.32,4.32,0,0,0,24.63,6.08Zm.54,7.59c-.28-.58-.89-.8-1.38-1.16C24,13.13,24.69,13.3,25.17,13.67Zm.38-3a3.75,3.75,0,0,0-1.42-1.14C24.43,10.15,25,10.38,25.55,10.71Z"/><path class="cls-3" d="M55.34,10.17c-1.42,0-2.83,0-4.25,0-.4,0-.56,0-.47-.51.17-.82.26-1.66.36-2.5,0-.27.13-.32.38-.32,1.51,0,3,0,4.54,0,.38,0,.58-.06.6-.5A11.08,11.08,0,0,1,56.7,5c.27,0,.65-.13.65.38-.16,0-.22-.23-.51-.09l1.51,1.11.09-.1c-.2-.36-.66-.45-.89-.77,0-.09.07-.21.17-.2a1.34,1.34,0,0,1,.88,1.31c0,.15-.12.17-.24.14a9.25,9.25,0,0,0-1.43-1.15c-.05.17-.07.27,0,.35l1.23.89c.11.08.12,0,.16-.09.17.34,0,.72.19,1.08s-.24.19-.41.2c.05-.09.09-.18,0-.25l-1.36-1-.09.11c.23.44.77.58,1.08.95l-.21.19A3.07,3.07,0,0,0,56,7.15L57,8l-.31,0a7.31,7.31,0,0,1-1-.72c-.17-.12-.34-.24-.56-.1l1.16.9-.43,0c-.53-.31-.91-.89-1.72-1l1.29,1h-.49a3.18,3.18,0,0,0-1.64-1c.33.36.74.47,1,.81A.18.18,0,0,0,54,8l-1-.7c-.17-.12-.34-.25-.59-.12L53.58,8h-.44a3.5,3.5,0,0,0-1.57-.92A9.91,9.91,0,0,0,52.64,8a1.3,1.3,0,0,0,.21.1l.19.18-.1.09,0,0,0,0,.09-.1c.15,0,.2.08.07.21l-.48.5L51.18,7.89c-.05.15-.08.26,0,.34l1.24.89c.09.06.14,0,.19-.08.37.11.45.26.06.47,0,0,0,.06.06.07s.38-.16.39.07-.26.1-.4.13a.8.8,0,0,1-.23,0c0-.11,0-.23-.06-.31l-1.37-1L51,8.6c.34.51,1,.72,1.39,1.14-.1.17-.26,0-.38.07l-.78-.59c-.07,0-.15-.16-.24-.06s0,.2.09.27l.61.44c.07.11.18.12.29.12h2.63a.5.5,0,0,0,.32-.07C55.27,9.67,55.35,9.85,55.34,10.17Zm1.49-3.94a.27.27,0,0,0,.11.4l1,.72c.08.05.16.21.27.1s0-.22-.11-.3Zm-5.56,1.1c-.11.22,0,.32.14.42l1,.71c.07,0,.14.17.23.08s0-.2-.08-.27Z"/><path class="cls-3" d="M35.63,11.14q-.3,2.22-.6,4.43c0,.07-.07.14-.08.22-.06.57-.06.57.53.57.37,0,.73,0,1.1,0S37,16.26,37,16c.1-.8.23-1.6.32-2.41,0-.37.12-.64.59-.55a2.77,2.77,0,0,0,.52,0c1.06,0,1.24.14,1.61,1.15l-.42.09s0,0,0-.06,0-.19-.09-.23-.09,0-.11.09l-.9-.61c-.18-.12-.18-.12-.55,0,.6.27.93.9,1.63.88l0,.22c-.62-.16-.17.25-.22.4s-.2-.12-.32-.15a.33.33,0,0,0-.14-.41c-.42-.28-.82-.58-1.24-.88-.12.22,0,.3.14.4.4.29.78.59,1.17.88a.21.21,0,0,0-.11.19l-1.3-.9c0,.11-.08.22,0,.28.43.33.86.66,1.32.95.14.09.1-.12.13-.2.51.26.11.44-.05.64a13.75,13.75,0,0,0-1.48-1.09.25.25,0,0,0,.1.36q.59.41,1.16.84c.09.07.14,0,.2,0,.15.18.23.35-.06.47l-1.28-1c-.06,0-.13-.12-.2,0a.15.15,0,0,0,0,.24,10.45,10.45,0,0,0,1.4,1c.11,0,.28,0,.34.08s-.11.19-.18.28a1.49,1.49,0,0,1-.24.21c0-.11,0-.23-.07-.31l-1.2-.86c-.07,0-.14-.1-.19,0a.16.16,0,0,0,.06.21,7.43,7.43,0,0,0,1.4.94c-.05.13.26.31-.06.4l-1.24-.95c-.06,0-.15-.16-.23,0a.16.16,0,0,0,.06.21,6.08,6.08,0,0,0,1.36.91c0,.52-.32.25-.54.24L38,17.61a3.44,3.44,0,0,0-1.58-1c.51.34.88.93,1.57,1,0,.1-.07.22.12.22-.39.19-.66-.15-1-.22a7.75,7.75,0,0,0-1-.84.65.65,0,0,0-.61-.15c-.75-.07-.69-.65-.58-1.1.19-.78,0-1.59.22-2.32s0-1.29.33-1.87C35.48,11.24,35.5,11.14,35.63,11.14Z"/><path class="cls-3" d="M16.27,6.18C14.74,5,12.95,4.9,11.12,5c-.79,0-1.58,0-2.36,0-.39,0-.55,0-.61.49C8,7,7.8,8.59,7.48,10.14c0-.57,0-1.15,0-1.72a3.79,3.79,0,0,1,.24-1,2.13,2.13,0,0,0,.12-.92c-.09-.6.24-1.13.23-1.72,0-.32.44-.44.7-.23A.37.37,0,0,0,9,4.63c1.24,0,2.49.07,3.72,0a1.21,1.21,0,0,1,1.11.34.36.36,0,0,0,.27.07A2.62,2.62,0,0,1,16,5.76C16.1,5.86,16.38,5.88,16.27,6.18Z"/><path class="cls-3" d="M22.23,6.54c-.13,1.43-.38,2.84-.57,4.25a13.25,13.25,0,0,0-.2,2,3.84,3.84,0,0,0,1.16,2.88c-.16,0-.33,0-.43-.13-.43-.68-1-1.28-.93-2.19a10.18,10.18,0,0,0,0-1.39,4.4,4.4,0,0,1,.35-1.72.3.3,0,0,0,0-.14,17.45,17.45,0,0,1,.22-2.39A1.7,1.7,0,0,1,22.23,6.54Z"/><path class="cls-3" d="M43.09,5.77A5.24,5.24,0,0,0,40,5c-1,0-1.9,0-2.85,0-.45,0-.7.08-.66.57,0,.06,0,.12-.07.17a4.61,4.61,0,0,1,0-.48c0-.31-.17-.79.53-.49.19.08.62-.1.94-.1a1.94,1.94,0,0,1,.87.15,1.28,1.28,0,0,0,.83,0,2.26,2.26,0,0,1,1.4,0,2,2,0,0,0,.94.27A1.06,1.06,0,0,1,43.09,5.77Z"/><path class="cls-3" d="M48.62,9.61l-.94,6.69c-.26,0-.18-.48-.55-.45a.73.73,0,0,0,.52-.72,4.88,4.88,0,0,1,.25-1.56c.18-.72,0-1.46.19-2.14a6.29,6.29,0,0,1,.35-1.68A.23.23,0,0,1,48.62,9.61Z"/><path class="cls-3" d="M36.39,5.77c-.19,1.75-.43,3.5-.74,5.24A7,7,0,0,1,36,7.93a2.05,2.05,0,0,0,0-1.36A.7.7,0,0,1,36.39,5.77Z"/><path class="cls-3" d="M29.49,8.07a28,28,0,0,1-.76,4.6A24.72,24.72,0,0,1,29,10.09c0-.5.12-1,.13-1.53C29.11,8.28,29.18,8.1,29.49,8.07Z"/><path class="cls-3" d="M55.72,10.53c0-.24,0-.47,0-.71s.07-.21.21-.2.15.09.16.2,0,.32,0,.47,0,.27.2.26c.6,0,.6.38.56.8Z"/><path class="cls-3" d="M49.21,5.39c-.14,1.32-.32,2.63-.56,3.93a6.72,6.72,0,0,1,0-1.61A6.11,6.11,0,0,1,49,6.05C49.12,5.85,48.86,5.52,49.21,5.39Z"/><path class="cls-3" d="M56.57,4.92a1.74,1.74,0,0,1-.28,0h-7a18.07,18.07,0,0,1,2.09,0Z"/><path class="cls-1" d="M35.45,16.63a.65.65,0,0,1,.61.15,7.75,7.75,0,0,1,1,.84A2.71,2.71,0,0,1,35.45,16.63Z"/><path class="cls-3" d="M8.82,17.65c-.35.37-.55.36-.85,0a2.13,2.13,0,0,0-.46-.4.49.49,0,0,1-.22-.49l.44.27c.34.21.61.56,1.06.57Z"/><path class="cls-1" d="M45.93,9.46a4.26,4.26,0,0,1-1.45-1.19c.51.35,1.19.49,1.46,1.13A0,0,0,0,0,45.93,9.46Z"/><path class="cls-3" d="M29.94,5c-.14.95-.22,1.91-.43,2.84a10.74,10.74,0,0,1,.17-2.64C29.71,5,29.81,5,29.94,5Z"/><path class="cls-1" d="M32.87,11.66c-.33-.24-.68-.47-1-.73-.15-.13-.53-.2-.38-.43s.33.12.49.22c.32.19.63.42.94.64C33.06,11.49,33,11.58,32.87,11.66Z"/><path class="cls-1" d="M55.72,10.53l1.15.83c.12.11.23.23.18.42a11.29,11.29,0,0,1-1.4-1c-.11-.07-.08-.19-.09-.3Z"/><path class="cls-1" d="M45.83,10.64a9.8,9.8,0,0,1-1.41-.93.19.19,0,0,1-.08-.24c0-.09.09-.08.14,0a6.92,6.92,0,0,1,1.38,1.12Z"/><path class="cls-1" d="M10.34,17.63a6.87,6.87,0,0,1-1.32-1,3.08,3.08,0,0,1,1.57,1Z"/><path class="cls-1" d="M51.48,17.31a4.89,4.89,0,0,1-1.53-1.11l.11-.14,1.45,1Z"/><path class="cls-1" d="M25.29,11.93l-1.11-.82c-.14-.1-.32-.18-.18-.44l1.46,1.05C25.48,11.85,25.46,12,25.29,11.93Z"/><path class="cls-1" d="M33.12,10.45a6.7,6.7,0,0,1-1.44-.94.15.15,0,0,1,0-.21c.09-.13.16,0,.23,0l1.24.86Z"/><path class="cls-1" d="M43.8,13.6c-.64-.12-1-.67-1.53-1a.13.13,0,0,1,0-.12c.07-.09.17-.06.25,0,.26.18.53.35.77.55s.44.24.58.47Z"/><path class="cls-1" d="M44.66,12.85c-.1.06-.18.16-.33,0-.35-.29-.73-.56-1.09-.85-.08-.06-.24-.11-.15-.24s.22,0,.3.07l1.21.84Z"/><path class="cls-1" d="M19.17,13.2l-1.25-.94c-.1-.07-.24-.15-.11-.29s.19,0,.26.09c.34.23.67.48,1,.72.17.12.24.24.14.44l0,0Z"/><path class="cls-1" d="M25.45,11.39A6.62,6.62,0,0,1,24,10.17a5.51,5.51,0,0,1,1.52,1.06Z"/><path class="cls-1" d="M18.57,14.56a8.16,8.16,0,0,1-1.48-1,.12.12,0,0,1,0-.2c.07-.08.14,0,.2,0a12,12,0,0,1,1.38,1.06Z"/><path class="cls-1" d="M33.66,6.2c0,.17,0,.32-.21.15L32.3,5.53a.21.21,0,0,1,0-.35l.62.42a.37.37,0,0,0,.25.19h0l.53.42Z"/><path class="cls-1" d="M38.84,16.49a10.45,10.45,0,0,1-1.4-1,.15.15,0,0,1,0-.24c.07-.08.14,0,.2,0l1.28,1Z"/><path class="cls-1" d="M26,7.84a4.41,4.41,0,0,1-1.54-1.1l.1-.12,1.43,1Z"/><path class="cls-1" d="M51.55,16.68c-.29.08-.42-.2-.61-.31s-.44-.31-.66-.47-.28-.18-.15-.41l1.37.94Z"/><path class="cls-1" d="M39,15.08c0,.08,0,.29-.13.2-.46-.29-.88-.62-1.32-.95-.08-.06,0-.17,0-.28l1.3.9Z"/><path class="cls-1" d="M33.3,9.17s-.12.12-.13.11c-.45-.32-.9-.64-1.34-1,0,0,0-.14,0-.28L33.2,9Z"/><path class="cls-1" d="M31.22,16.25l-1.3-1c-.08-.06-.17-.1-.07-.22s.13-.05.2,0l1.35,1s0,.09,0,.13Z"/><path class="cls-1" d="M50.94,17.63a7,7,0,0,1-1.29-1c.67,0,1,.6,1.57.9Z"/><path class="cls-1" d="M17,16.12l-1.3-.94c-.07,0-.19-.08-.12-.2a.13.13,0,0,1,.2,0l1.37,1s0,.11-.06.16Z"/><path class="cls-1" d="M32,15.41a9.76,9.76,0,0,1-1.42-1c-.07,0-.11-.12-.06-.2s.16,0,.24,0l1.31,1Z"/><path class="cls-1" d="M52,13.73c0,.07-.1.11-.15.07l-1.27-.91c-.11-.08-.11-.18,0-.33L52,13.61Z"/><path class="cls-1" d="M32.38,13.9,31.2,13c-.09-.07-.22-.12-.13-.26s.2,0,.27.05c.35.24.69.51,1,.75a.32.32,0,0,1,.16.36Z"/><path class="cls-1" d="M18,15.33c-.23.12-.35-.08-.5-.18l-.94-.66c-.08-.06-.24-.11-.15-.25s.22,0,.31,0l1.25.87Z"/><path class="cls-1" d="M42.81,17l-.13-.24a.38.38,0,0,1,.39,0,9.31,9.31,0,0,1,1.16.87C43.65,17.64,43.28,17.2,42.81,17Z"/><path class="cls-1" d="M26.92,17.64l-1.09-.86c.81.09,1.18.69,1.74,1l.06.07,0,0C27.35,17.9,27.14,17.75,26.92,17.64Z"/><path class="cls-1" d="M32.44,14.21c0,.09,0,.3-.22.16L31,13.5c-.08-.06-.15-.12-.07-.23s.16,0,.23,0l1.21.83Z"/><path class="cls-1" d="M44.63,12.46l-1.09-.83c-.08-.06-.23-.1-.12-.25s.2,0,.28,0l1.29,1C44.91,12.62,44.77,12.51,44.63,12.46Z"/><path class="cls-1" d="M52.65,9c0,.06-.1.14-.19.08l-1.24-.89c-.11-.08-.09-.19,0-.34L52.64,9A0,0,0,0,0,52.65,9Z"/><path class="cls-1" d="M51.69,15.61a4.4,4.4,0,0,1-1.43-1.24,5.4,5.4,0,0,1,1.47,1.06Z"/><path class="cls-1" d="M38.95,15.82c-.07,0-.11.09-.2,0q-.57-.44-1.16-.84a.25.25,0,0,1-.1-.36A13.75,13.75,0,0,1,39,15.72Z"/><path class="cls-1" d="M33.22,9.81c-.11.13-.19,0-.28,0L31.87,9c-.13-.09-.22-.18-.1-.36l1.32.89Z"/><path class="cls-1" d="M52.39,9.74c-.43-.42-1-.63-1.39-1.14l.09-.11,1.37,1c.11.08.08.2.06.31Z"/><path class="cls-1" d="M32.61,13.41c-.44-.44-1.08-.65-1.38-1.25a5.77,5.77,0,0,1,1.48,1.09Z"/><path class="cls-1" d="M19.13,13.5c-.08.15-.17.17-.32.05-.38-.29-.77-.56-1.16-.83-.08-.06-.17-.12-.1-.23s.19,0,.26,0l1.31.93Z"/><path class="cls-1" d="M19.6,11.49a6.75,6.75,0,0,1-1.5-1.1l.1-.13,1.15.77C19.49,11.15,19.63,11.27,19.6,11.49Z"/><path class="cls-1" d="M45.38,11.7l-1.25-.94c-.08-.06-.22-.13-.15-.25s.2,0,.28,0l1.08.77a.29.29,0,0,1,.12.36h0Z"/><path class="cls-1" d="M12.07,17.63l-1.3-.94.07-.11a3,3,0,0,1,1.5,1A.29.29,0,0,0,12.07,17.63Z"/><path class="cls-1" d="M9.57,17.62a4.57,4.57,0,0,1-1.42-1,3.19,3.19,0,0,1,1.58,1Z"/><path class="cls-1" d="M25.28,12.55c-.46-.41-1.07-.66-1.39-1.23.52.35,1.15.56,1.49,1.15Z"/><path class="cls-1" d="M45.94,10c-.53-.15-1.43-.88-1.47-1.25l1.44,1Z"/><path class="cls-1" d="M38.66,17.6a6.08,6.08,0,0,1-1.36-.91.16.16,0,0,1-.06-.21c.08-.13.17,0,.23,0l1.24.95Z"/><path class="cls-1" d="M58.35,6.78c0,.06-.05.17-.16.09L57,6c-.11-.08-.1-.18,0-.35a9.25,9.25,0,0,1,1.43,1.15Z"/><path class="cls-1" d="M28.66,17.63l-1.26-1a.26.26,0,0,1,.38,0c.37.27.76.51,1.11.81s-.08.16-.15.22A.07.07,0,0,0,28.66,17.63Z"/><path class="cls-1" d="M19.53,12.09A6.34,6.34,0,0,1,18,11l.11-.14,1.43,1.06Z"/><path class="cls-1" d="M19.17,9.36l-1-.72c-.16-.12-.3-.23-.25-.48l.8.53c.19.2.49.31.49.65l0,0Z"/><path class="cls-1" d="M8.79,17.62c-.45,0-.72-.36-1.06-.57l-.44-.27-.1-.1a.29.29,0,0,1,.35,0A4.45,4.45,0,0,1,8.79,17.62Z"/><path class="cls-1" d="M26,17.64,25,16.79c.75,0,1.07.63,1.61.86-.12.15-.25.05-.35.1Z"/><path class="cls-1" d="M19.52,10.16a3.08,3.08,0,0,1-1.37-1.23l1,.68A.78.78,0,0,1,19.52,10.16Z"/><path class="cls-1" d="M57.75,7.88c-.31-.37-.85-.5-1.08-.95l.09-.11,1.36,1c.1.08.06.17,0,.25Z"/><path class="cls-1" d="M54.18,7.89c-.22-.33-.62-.44-1-.81a3.18,3.18,0,0,1,1.64,1C54.63,8,54.35,8.16,54.18,7.89Z"/><path class="cls-1" d="M39,14.76c-.39-.3-.78-.6-1.17-.88-.14-.1-.26-.18-.14-.4.41.3.82.6,1.24.88a.33.33,0,0,1,.14.41H39Z"/><path class="cls-1" d="M19.6,10.84a5.42,5.42,0,0,1-1.49-1.05l.13-.17,1.36,1Z"/><path class="cls-1" d="M25.63,10.23c-1.38-1-1.38-1-1.38-1.28l1.41,1Z"/><path class="cls-1" d="M51.66,16c-.07,0,0,.2-.13.14-.46-.31-.91-.64-1.35-1,0,0,0-.15,0-.28l1.34.91Z"/><path class="cls-1" d="M56.22,8.06l-1.16-.9c.22-.13.39,0,.56.1a7.31,7.31,0,0,0,1,.72C56.54,8.15,56.37,8,56.22,8.06Z"/><path class="cls-1" d="M45.84,8.71a2.93,2.93,0,0,1-1.4-1.16c.47.36,1.09.52,1.38,1.09A0,0,0,0,0,45.84,8.71Z"/><path class="cls-1" d="M52.49,13l-1.12-.87c.78.06,1.13.63,1.67.89-.1.16-.29,0-.37.16S52.62,13,52.49,13Z"/><path class="cls-1" d="M56.78,12.95,55.57,12c-.11-.08-.23-.17-.12-.3s.19,0,.27.1l1.15.84C56.86,12.77,56.93,12.9,56.78,12.95Z"/><path class="cls-1" d="M55.36,8.06l-1.29-1c.81.08,1.19.65,1.72,1Z"/><path class="cls-1" d="M57,8l-1-.82a3.07,3.07,0,0,1,1.58.91A.87.87,0,0,1,57,8Z"/><path class="cls-1" d="M53.58,8l-1.16-.89c.24-.13.41,0,.59.12L54,8C53.88,8.16,53.72,8,53.58,8Z"/><path class="cls-1" d="M56.49,13.17c-.63-.07-1-.64-1.46-.93a3.07,3.07,0,0,1,1.55.91Z"/><path class="cls-1" d="M57.54,5.54c.24.32.69.41.89.77l-.09.1L56.84,5.3c.29-.14.35.13.51.09Z"/><path class="cls-1" d="M52.86,8.08a1.3,1.3,0,0,1-.21-.1,9.91,9.91,0,0,1-1.08-.85,3.5,3.5,0,0,1,1.57.92Z"/><path class="cls-1" d="M23.94,13.24a4.79,4.79,0,0,1,1.28.95v.11a2,2,0,0,1-1.29-1.06Z"/><path class="cls-1" d="M50.16,17.63a8.26,8.26,0,0,1-1.36-1,3.65,3.65,0,0,1,1.52,1Z"/><path class="cls-3" d="M32,5c-.66-.09-1.33,0-2,0A2.7,2.7,0,0,1,32,5Z"/><path class="cls-1" d="M51.7,9.87l-.61-.44c-.09-.07-.19-.15-.09-.27s.17,0,.24.06l.78.59Z"/><path class="cls-1" d="M44.34,6.73c.32.32.79.5.93,1-.31-.38-.95-.4-1-1Z"/><path class="cls-1" d="M17.57,7.34a1.81,1.81,0,0,1,1.05.88,3.79,3.79,0,0,1-1-.73Z"/><path class="cls-3" d="M17.23,7.31a10.45,10.45,0,0,0-1-1.14l.18-.25C16.62,6.44,17.22,6.7,17.23,7.31Z"/><path class="cls-1" d="M24.13,16.77c.5-.12.68.36,1.06.51-.11.1-.18,0-.26,0Z"/><path class="cls-3" d="M33.65,6.2l-.53-.42C33.43,5.76,33.69,5.79,33.65,6.2Z"/><path class="cls-3" d="M41,15.82c.17.12.38.19.49.38C41.16,16.28,41,16.15,41,15.82Z"/><path class="cls-3" d="M33.13,5.78a.37.37,0,0,1-.25-.19C33,5.58,33.12,5.62,33.13,5.78Z"/><path class="cls-3" d="M49.28,5l-.06.21A.22.22,0,0,1,49.28,5Z"/><path class="cls-3" d="M25.28,5.68l.1.1-.07.06-.09-.09Z"/><path class="cls-1" d="M44.25,6.73l0,0h0A.08.08,0,0,1,44.25,6.73Z"/><path class="cls-1" d="M26.63,26.08c-.23,0-.35-.05-.29-.34a3.06,3.06,0,0,0,.09-.61c0-.42.15-.62.6-.54a.62.62,0,0,1,.57.73A.86.86,0,0,1,26.63,26.08Z"/><path class="cls-1" d="M31.83,25.44c-.08,0-.29,0-.19-.2s-.14-.61.3-.63c.22,0,.48,0,.49.32S32.22,25.43,31.83,25.44Z"/><path class="cls-1" d="M46.42,26.15a.68.68,0,0,1-.68-.71.91.91,0,0,1,.87-.9.68.68,0,0,1,.69.7A1,1,0,0,1,46.42,26.15Z"/><path class="cls-1" d="M18.43,25.44c-.16,0-.32,0-.24-.21s-.15-.59.3-.62c.25,0,.49,0,.48.37S18.73,25.42,18.43,25.44Z"/><path class="cls-1" d="M21.14,25.59c-.11-.12-.44.22-.45-.2s.27-.85.65-.84.44.19.44.49C21.78,25.59,21.78,25.59,21.14,25.59Z"/><path class="cls-1" d="M4.27,25.59c-.1-.11-.44.22-.44-.22s.27-.82.62-.82.47.2.47.51C4.92,25.58,4.91,25.59,4.27,25.59Z"/><path class="cls-1" d="M7.11,25.58c-.2,0-.52.13-.56-.21a.86.86,0,0,1,.71-.82c.43,0,.41.32.44.59C7.75,25.58,7.48,25.65,7.11,25.58Z"/><path class="cls-1" d="M59.71,25.08s-.06.13-.12.07,0-.11,0-.16Z"/><path class="cls-2" d="M14.41,7.49a3.2,3.2,0,0,1,1.27,3.18,3.31,3.31,0,0,1-.84,2c-.17,0-.35-.08-.48.18-.27.56-.45.6-.9.26a1.7,1.7,0,0,1-.12.36,3,3,0,0,1-1.89.81c-.09,0-.11-.1-.16-.15-.33-.36-.11-.79-.19-1.18a.09.09,0,0,1,0-.09c.37,0,0-.24.09-.36s.2-.23-.1-.39h0c0-.17.13-.19.26-.21s.22-.18.12-.27a.35.35,0,0,1,0-.53c.32-.33.13-.51-.13-.7l-.11-.08c.29-.13.58-.35.49-.66s0-.5-.11-.74V8.36c0-.11.13-.23,0-.34l.15-.15a.84.84,0,0,0,.7.19l.2-.17a.57.57,0,0,0,.76.09l.18-.07h0c0,.21.13.13.22.15s.34.18.27-.15S13.93,7.41,14.41,7.49Z"/><path class="cls-3" d="M11.09,12.94c.09.39-.13.83.19,1.18.05.06.07.13.16.15a3,3,0,0,0,1.89-.81,1.7,1.7,0,0,0,.12-.36c.45.34.63.3.9-.26.12-.26.31-.16.48-.18a1.25,1.25,0,0,1-.47.56l0,0,0,0a4.35,4.35,0,0,1-3,1.25c-.65,0-1.31,0-2,0-.39,0-.45-.11-.39-.45.22-1.43.41-2.86.61-4.3.12-.85.25-1.7.35-2.55,0-.29.12-.42.44-.39A11.65,11.65,0,0,1,12,6.9c.39.09.8-.13,1.21,0a3.11,3.11,0,0,1,1.23.58c-.48-.08-.25.24-.24.43-.27-.19-.54-.36-.8-.56s-.34-.22-.55-.1l.85.66L13.49,8c-.45-.1-.74-.48-1.11-.7-.18-.1-.33-.25-.58-.13l.93.73-.2.17c-.52-.34-.92-.88-1.62-.9l.92.71L11.67,8l-1.36-.93-.13.16c.46.41,1,.74,1.5,1.11v.31l-1.48-1c0,.38.91,1.1,1.47,1.27.07.24,0,.49.11.74s-.19.53-.48.66L10,9.42l-.1.13a11.94,11.94,0,0,0,1.5,1.17l0-.34c.26.19.45.38.13.7a.35.35,0,0,0,0,.53c.1.09.05.25-.12.27s-.25,0-.26.21l-1.43-1c0,.15,0,.26,0,.3a9.86,9.86,0,0,0,1.27.93c.28.15.12-.13.12-.24.3.16.32.19.1.39s.28.34-.09.36A10.86,10.86,0,0,0,9.63,11.7C9.64,12.07,10.58,12.83,11.09,12.94Zm-.1.57a4,4,0,0,0-1.48-1.13A4,4,0,0,0,11,13.52Zm-.9-4.67s-.08,0-.09.08,0,.17.11.23l1.11.8c.07,0,.14.17.23.07s0-.19-.08-.27l-1.15-.82Zm.11-.58s-.1,0-.11.06a.18.18,0,0,0,.09.24c.29.2.56.42.85.61s.38.39.48.25-.19-.33-.34-.45C10.87,8.72,10.53,8.51,10.2,8.26Zm.68,5.93c0-.14.07-.25,0-.33L9.64,13c-.07-.05-.14-.08-.19,0s0,.17.1.22Zm.32-2.42a3.61,3.61,0,0,0-1.43-1.14A3.71,3.71,0,0,0,11.2,11.77ZM9.87,10a3.53,3.53,0,0,0,1.43,1.13A4,4,0,0,0,9.87,10Zm.49,4.11-.79-.57c-.06,0-.13-.12-.2,0a.14.14,0,0,0,0,.21C9.7,14,9.9,14.28,10.36,14.16Z"/><path class="cls-3" d="M40,11.14a9.06,9.06,0,0,1-2.18.11c-.27,0-.15-.19-.14-.3q.2-1.53.42-3.06c0-.34,0-.83.21-1s.7-.07,1.06-.07a2.81,2.81,0,0,1,2,.49c-.3.11-.53-.3-.84-.09-.17,0-.34-.15-.54-.05.27.3.67.41.9.72a.2.2,0,0,0-.18.11c-.55-.23-.89-.86-1.69-.89l1.33,1c0,.25-.24.17-.39.18-.3-.55-.91-.73-1.36-1.12a.09.09,0,0,0-.15,0,.17.17,0,0,0,.08.21A8.44,8.44,0,0,0,40,8.33c-.1.16.59.42-.06.5a3.83,3.83,0,0,0-1.5-1.09,4.73,4.73,0,0,0,1.48,1.19l-.08.31-1.2-.85c-.07,0-.15-.22-.26,0s0,.17.08.23a11,11,0,0,0,1.37.92,1.27,1.27,0,0,1-.08,1.25C39.57,11.17,39.78,11.12,40,11.14ZM38.2,9.47a4,4,0,0,0,1.42,1.13A3.58,3.58,0,0,0,38.2,9.47Zm.08-.56c.33.54.93.78,1.41,1.21C39.69,9.77,39.11,9.26,38.28,8.92Zm-.15,1a1.43,1.43,0,0,0,1.31,1Zm-.07.6c0,.41,0,.43.54.38Z"/><path class="cls-2" d="M40.6,7.21c.31-.2.54.21.84.09a2.35,2.35,0,0,1-.68,3.62,1.5,1.5,0,0,1-.72.21c-.25,0-.47,0-.29-.39a1.27,1.27,0,0,0,.08-1.25V9.24l.08-.31,0-.09c.66-.09,0-.35.06-.5a.05.05,0,0,1,0-.07c.15,0,.35.07.39-.18.12,0,.27.06.37-.09A.2.2,0,0,1,41,7.88c.17.25.41.17.74.19Z"/><path class="cls-1" d="M18.86,14c0,.14-.11.16-.2.09l-1.3-.94c-.08-.06-.06-.14,0-.21s.11,0,.16,0l1.29,1A.42.42,0,0,1,18.86,14Z"/><path class="cls-1" d="M19.35,12.67l-1.51-1.11.14-.18a8,8,0,0,1,1.49,1.14Z"/><path class="cls-1" d="M13,16.33a2.83,2.83,0,0,1,1.74,1.09A4.55,4.55,0,0,1,13,16.33Z"/><path class="cls-1" d="M15.79,16.83c0,.13-.15.18-.25.11-.43-.3-.85-.61-1.27-.91-.06,0-.09-.09,0-.15s.1-.06.13,0a12.18,12.18,0,0,1,1.41,1Z"/><path class="cls-1" d="M16.78,16.32c-.17.13-.27,0-.37,0l-1.12-.81c-.06,0-.16-.09-.1-.18a.15.15,0,0,1,.21,0A11.63,11.63,0,0,1,16.78,16.32Z"/><path class="cls-1" d="M11.47,17.62c-.68-.06-1-.65-1.57-1a2.85,2.85,0,0,1,1.56,1l0,0Z"/><path class="cls-1" d="M16.37,16.61c-.34.15-.45-.05-.6-.15-.32-.21-.62-.43-.93-.66-.06,0-.21-.08-.1-.21a.15.15,0,0,1,.22,0Z"/><path class="cls-1" d="M15.19,17.15a6.21,6.21,0,0,1-1.58-1C13.92,16.06,14.53,16.41,15.19,17.15Z"/><path class="cls-1" d="M17.59,15.7a.28.28,0,0,1-.3,0c-.38-.29-.77-.56-1.15-.84-.06,0-.15-.09-.12-.18s.12-.09.14-.08c.48.38,1.09.6,1.43,1.15l0,0Z"/><path class="cls-1" d="M16.84,13.76l.14.07,1.19.88c.07.05.18.11.09.22s-.17,0-.25,0l-1.15-.85c-.07-.05-.18-.1-.11-.22S16.81,13.78,16.84,13.76Z"/><path class="cls-1" d="M13.89,17.47c-.62-.11-1-.65-1.59-.92C12.7,16.43,13,16.58,13.89,17.47Z"/><path class="cls-1" d="M11.65,16.62c.67,0,1,.59,1.51.9C12.49,17.51,12.15,16.93,11.65,16.62Z"/><path class="cls-1" d="M28.51,16.18c.15-.2.27-.12.4,0,.36.26.72.51,1.07.78.07.05.26.07.14.23s-.2,0-.29,0Z"/><path class="cls-1" d="M33,10.93S33,11,33,11s-.11,0-.16,0l-1.19-.87c-.09-.06-.14-.15-.09-.24s.16,0,.22,0l1.12.8C33,10.75,33,10.79,33,10.93Z"/><path class="cls-1" d="M31.71,15.71c0,.14-.14.14-.22.08l-1.26-.92a.13.13,0,0,1,0-.2.1.1,0,0,1,.16,0l1.3,1S31.69,15.68,31.71,15.71Z"/><path class="cls-1" d="M33.58,7c-.49-.34-.92-.66-1.38-1-.12-.08-.1-.13-.07-.22s.07-.11.14-.06a11.48,11.48,0,0,1,1.32,1S33.58,6.9,33.58,7Z"/><path class="cls-1" d="M29.41,15.54c.14-.14.23-.13.34-.06l1.15.84c.06,0,.2.08.12.2s-.19,0-.28,0Z"/><path class="cls-1" d="M32.21,14.92a8.44,8.44,0,0,1-1.45-1c-.06,0-.13-.11-.05-.19s.08-.1.15,0a11.88,11.88,0,0,1,1.38,1.07s0,.06,0,.09Z"/><path class="cls-1" d="M29.17,15.73l.16.1,1.15.83c.07,0,.2.08.11.2a.18.18,0,0,1-.26,0L29.11,16s-.12-.07-.05-.15A.89.89,0,0,1,29.17,15.73Z"/><path class="cls-1" d="M33.49,7.59c-.47-.33-.92-.66-1.39-1a.18.18,0,0,1-.1-.22.1.1,0,0,1,.16-.05,6.45,6.45,0,0,1,1.35,1S33.49,7.5,33.49,7.59Z"/><path class="cls-1" d="M32.82,11.92c0,.09,0,.21,0,.27s-.12,0-.18-.08l-1.12-.8c-.1-.07-.18-.16-.1-.27s.18,0,.25.07Z"/><path class="cls-1" d="M26.78,16.75a3.62,3.62,0,0,1,1.53,1C27.64,17.65,27.27,17.12,26.78,16.75Z"/><path class="cls-1" d="M29.62,17.31c-.07.12-.16.17-.22.12l-1.31-.94c-.07,0-.07-.1,0-.15s.17,0,.26,0Z"/><path class="cls-1" d="M33.42,8.1A4,4,0,0,1,32,7C32.5,7.3,33.13,7.5,33.42,8.1Z"/><path class="cls-1" d="M31.32,11.61c.51.34,1.13.56,1.42,1.15A3.92,3.92,0,0,1,31.32,11.61Z"/><path class="cls-1" d="M33.32,8.74c-1.14-.7-1.38-.93-1.4-1.29l1.29.92a.28.28,0,0,1,.11.37Z"/><path class="cls-2" d="M27.63,17.82l-.06-.07.08,0Z"/><path class="cls-1" d="M43.81,10.86l.45.33.88.64c.07.05.16.08.07.21s-.15.06-.22,0l-1.23-.88c-.07-.05-.12-.1-.06-.19A1,1,0,0,1,43.81,10.86Z"/><path class="cls-1" d="M44.3,13.22a.29.29,0,0,1-.43,0,11.11,11.11,0,0,0-1.06-.8c-.06,0-.2-.07-.1-.2s.16,0,.24,0a10.5,10.5,0,0,1,1.36,1Z"/><path class="cls-1" d="M44.31,15.73l1.31.94c.1.07.19.16.11.26s-.17,0-.24-.05l-1.12-.8C44.23,16,44.23,15.89,44.31,15.73Z"/><path class="cls-1" d="M45.65,11.22l-1.35-1c-.09-.07-.21-.13-.13-.26s.18,0,.26,0c.36.26.71.53,1.08.77a.33.33,0,0,1,.15.4Z"/><path class="cls-1" d="M44.26,16.34l.13.08,1.12.8c.1.07.21.15.14.26s-.19,0-.27,0l-1.08-.78c-.07-.05-.17-.11-.12-.23A.51.51,0,0,1,44.26,16.34Z"/><path class="cls-1" d="M43.53,16.67c.66,0,1,.6,1.53.92C44.38,17.57,44,17,43.53,16.67Z"/><path class="cls-1" d="M45.37,15.36c.1.24.56.22.47.62-.42-.16-.65-.6-1.13-.64h0c.1-.28-.42-.23-.25-.58l.91.6Z"/><path class="cls-1" d="M44.71,15.34a5,5,0,0,0,1,.79s.16.06.11.17-.08.1-.15.05a8.74,8.74,0,0,1-1.3-1s0-.06,0-.1.21.18.36.11Z"/><path class="cls-1" d="M42.2,12.92l1,.75c.06,0,.14.09.06.18a.12.12,0,0,1-.2,0A2.2,2.2,0,0,1,42.2,12.92Z"/><path class="cls-2" d="M43.77,14s0,0,0,.06a.06.06,0,0,1-.08.06.08.08,0,0,1,0-.07S43.74,14.06,43.77,14Z"/><path class="cls-1" d="M50.48,13.14l1.24.93c.1.08.24.14.13.29s-.2-.05-.26-.09c-.34-.23-.66-.49-1-.72C50.46,13.45,50.33,13.37,50.48,13.14Z"/><path class="cls-1" d="M51.8,14.84c0,.19-.11.15-.2.09l-1.19-.86a.16.16,0,0,1-.05-.25c.11-.14.15,0,.22.06.36.26.71.53,1.08.78C51.73,14.72,51.82,14.75,51.8,14.84Z"/><path class="cls-1" d="M56.9,12.36l-1.3-.94c-.1-.07-.17-.16-.08-.27s.16,0,.22.06l1,.75C56.91,12.06,57,12.15,56.9,12.36Z"/><path class="cls-1" d="M55.66,13.11c-.67,0-1-.57-1.52-.88C54.81,12.24,55.16,12.8,55.66,13.11Z"/><path class="cls-1" d="M50.61,12.23c.66,0,1,.58,1.53.91C51.48,13.12,51.12,12.54,50.61,12.23Z"/><path class="cls-1" d="M53.92,13.14c-.44,0-.63-.12-1.56-.9C52.77,12.19,53,12.33,53.92,13.14Z"/><path class="cls-1" d="M53.17,12.17c.75.07,1.09.65,1.66.9C54.42,13.17,54.11,13,53.17,12.17Z"/><path class="cls-1" d="M48.38,16.6l1.22.94a3.36,3.36,0,0,1-1.46-.94Z"/><path class="cls-2" d="M48.38,16.6h-.24C48.22,16.5,48.3,16.5,48.38,16.6Z"/><path class="cls-1" d="M24.54,7.21l.4.28.88.64c.08.06.15.14.09.24s-.16,0-.23,0l-1.15-.83a.19.19,0,0,1-.09-.24S24.51,7.23,24.54,7.21Z"/><path class="cls-1" d="M25.27,12.86c0,.1.07.36-.19.17s-.79-.57-1.19-.86c-.1-.07-.17-.16-.07-.27s.16,0,.23.07l1.22.88Z"/><path class="cls-1" d="M25.79,9.07l-1.36-1a.15.15,0,0,1-.07-.2c0-.1.12-.06.19,0l1.2.86C25.87,8.81,25.85,8.91,25.79,9.07Z"/><path class="cls-1" d="M25.75,9.6a7.94,7.94,0,0,1-1.41-.95.16.16,0,0,1,0-.25c.08-.08.14,0,.19.06.38.26.74.54,1.13.8.14.09.12.21.13.33Z"/><path class="cls-1" d="M24.63,6.08a4.32,4.32,0,0,1,1.44,1.15A3.52,3.52,0,0,1,24.63,6.08Z"/><path class="cls-1" d="M25.17,13.67c-.48-.37-1.13-.54-1.38-1.16C24.27,12.87,24.88,13.09,25.17,13.67Z"/><path class="cls-1" d="M25.55,10.71c-.51-.33-1.12-.56-1.42-1.14A3.75,3.75,0,0,1,25.55,10.71Z"/><path class="cls-1" d="M25.22,5.75l.09.09c.21.16.42.33.64.48s.26.19.15.4l-1.19-.85c-.11-.08-.31-.16-.19-.32s.21.09.34.11A.72.72,0,0,1,25.22,5.75Z"/><path class="cls-1" d="M23.94,13.24l-.06,0,0,0,0,.06Z"/><path class="cls-1" d="M56.83,6.22l1.26.93c.11.08.23.17.11.3s-.19,0-.27-.1l-1-.72A.27.27,0,0,1,56.83,6.22Z"/><path class="cls-1" d="M51.27,7.32l1.29.94c.1.07.18.17.08.27s-.16,0-.23-.08l-1-.71C51.28,7.65,51.16,7.55,51.27,7.32Z"/><path class="cls-2" d="M53,8.36l0,0,0,0Z"/><path class="cls-2" d="M53,8.36l.1-.09h0l-.09.1Z"/><path class="cls-1" d="M38.76,17.05a7.43,7.43,0,0,1-1.4-.94.16.16,0,0,1-.06-.21c0-.1.12-.05.19,0l1.2.86c.11.08.08.2.07.31Z"/><path class="cls-1" d="M38,17.62c-.69,0-1.05-.63-1.57-1a3.44,3.44,0,0,1,1.58,1Z"/><path class="cls-1" d="M39.63,14.29c-.7,0-1-.61-1.63-.88.37-.08.37-.08.55,0l.9.61.19.15s0,0,0,.06Z"/><path class="cls-2" d="M39.64,14.22l-.19-.15c0-.05,0-.13.11-.09S39.64,14.13,39.64,14.22Z"/><path class="cls-2" d="M38,17.61l.11.23h0c-.19,0-.12-.12-.12-.22Z"/><path class="cls-1" d="M11.68,8.36c-.5-.37-1-.69-1.5-1.11l.13-.16L11.67,8C11.8,8.13,11.72,8.25,11.68,8.36Z"/><path class="cls-1" d="M11.66,8.9c-.56-.17-1.43-.89-1.47-1.27l1.48,1Z"/><path class="cls-1" d="M11.39,10.38l0,.34a11.94,11.94,0,0,1-1.5-1.17l.1-.13,1.31.88Z"/><path class="cls-1" d="M11.09,12.94c-.51-.11-1.45-.88-1.46-1.24a10.86,10.86,0,0,1,1.47,1.15A.09.09,0,0,0,11.09,12.94Z"/><path class="cls-1" d="M11.82,7.87l-.92-.71c.7,0,1.1.56,1.62.9A.84.84,0,0,1,11.82,7.87Z"/><path class="cls-1" d="M12.73,7.89l-.93-.73c.25-.12.4,0,.58.13.38.22.66.6,1.11.7A.57.57,0,0,1,12.73,7.89Z"/><path class="cls-1" d="M13.66,7.91l-.85-.66c.21-.12.37,0,.55.1s.54.37.8.56c.07.34-.21.05-.27.15l-.22-.15Z"/><path class="cls-3" d="M13.67,7.92l.22.15C13.8,8,13.63,8.13,13.67,7.92Z"/><path class="cls-1" d="M11,13.52a4,4,0,0,1-1.48-1.13A4,4,0,0,1,11,13.52Z"/><path class="cls-1" d="M10.09,8.85l.13.09,1.15.82c.11.08.16.17.08.27s-.16,0-.23-.07l-1.11-.8C10,9.11,10,9,10,8.93S10.06,8.87,10.09,8.85Z"/><path class="cls-1" d="M10.2,8.26c.33.24.67.46,1,.72.14.12.53.18.34.45s-.32-.15-.48-.25-.57-.41-.85-.61a.18.18,0,0,1-.09-.24S10.16,8.29,10.2,8.26Z"/><path class="cls-1" d="M11.1,12.1c0,.1.16.39-.12.24a9.86,9.86,0,0,1-1.27-.93s0-.14,0-.3l1.43,1Z"/><path class="cls-1" d="M10.88,14.2l-1.34-1c-.07-.05-.17-.1-.1-.22s.12-.07.19,0l1.2.87C11,14,10.9,14.06,10.88,14.2Z"/><path class="cls-1" d="M11.2,11.77a3.71,3.71,0,0,1-1.43-1.14A3.61,3.61,0,0,1,11.2,11.77Z"/><path class="cls-1" d="M9.87,10a4,4,0,0,1,1.43,1.13A3.53,3.53,0,0,1,9.87,10Z"/><path class="cls-1" d="M10.36,14.16c-.46.12-.67-.21-.94-.38a.14.14,0,0,1,0-.21c.07-.1.14,0,.2,0Z"/><path class="cls-2" d="M14.36,13.24l0,0,0,0Z"/><path class="cls-1" d="M39.93,8.83l0,.09a4.72,4.72,0,0,1-1.48-1.19A3.83,3.83,0,0,1,39.93,8.83Z"/><path class="cls-1" d="M39.83,9.24V9.5a11,11,0,0,1-1.37-.92c-.09-.06-.15-.12-.08-.23s.19,0,.26,0Z"/><path class="cls-1" d="M40,8.26a.05.05,0,0,0,0,.07,8.43,8.43,0,0,1-1.41-.93.17.17,0,0,1-.08-.21.09.09,0,0,1,.15,0C39.1,7.52,39.71,7.71,40,8.26Z"/><path class="cls-1" d="M38.2,9.47a3.58,3.58,0,0,1,1.42,1.13A4,4,0,0,1,38.2,9.47Z"/><path class="cls-1" d="M40.6,7.21l1.1.86c-.33,0-.56.07-.74-.19s-.64-.43-.9-.72C40.26,7.06,40.42,7.19,40.6,7.21Z"/><path class="cls-1" d="M38.28,8.92c.83.34,1.41.85,1.41,1.21C39.21,9.7,38.61,9.46,38.28,8.92Z"/><path class="cls-1" d="M40.78,8c-.09.15-.25,0-.37.09l-1.33-1C39.89,7.13,40.23,7.76,40.78,8Z"/><path class="cls-1" d="M38.13,10l1.31,1A1.43,1.43,0,0,1,38.13,10Z"/><path class="cls-1" d="M38.07,10.56l.54.38C38.09,11,38.07,11,38.07,10.56Z"/></g></g></svg>